Mada-Medium.sfdir
StartChar: uni0621
Encoding: 1569 1569 90
Width: 498
VWidth: -36
GlyphClass: 2
Flags: HW
LayerCount: 3
Fore
SplineSet
393.87890625 272.00390625 m 1
 393.87890625 167.00390625 l 1
 298.41796875 167.00390625 l 1
 329.845703125 100.3671875 l 2
 337.208984375 82.5048828125 353.451171875 54.8818359375 333.201171875 27.1318359375 c 0
 314.923828125 2.0859375 283.9453125 0.4677734375 270.325195312 0.4677734375 c 2
 105 0.4677734375 l 1
 105 105.467773438 l 1
 211.349609375 105.467773438 l 1
 180.341796875 171.216796875 l 2
 180.341796875 171.216796875 156.841796875 210.880859375 176.439453125 241.631835938 c 0
 186.802734375 257.891601562 209.103515625 272.00390625 244.05859375 272.00390625 c 2
 393.87890625 272.00390625 l 1
EndSplineSet
Layer: 2
Refer: 88 -1 N 1 0 0 1 290 373 2
Refer: 69 -1 N 1 0 0 1 290 373 2
Refer: 67 -1 N 1 0 0 1 290 373 2
Refer: 112 1618 N 1 0 0 1 290 409 2
Refer: 109 1615 N 1 0 0 1 290 407 2
Refer: 106 1612 N 1 0 0 1 290 406 2
Refer: 74 -1 N 1 0 0 1 200 -90 2
Refer: 72 -1 N 1 0 0 1 200 -90 2
Refer: 114 1622 N 1 0 0 1 200 -90 2
Refer: 107 1613 N 1 0 0 1 200 -120 2
Refer: 110 1616 N 1 0 0 1 200 -111 2
Refer: 71 -1 N 1 0 0 1 200 -90 2
Refer: 73 -1 N 1 0 0 1 200 -90 2
Refer: 105 1611 N 1 0 0 1 290 411 2
Refer: 108 1614 N 1 0 0 1 290 394 2
Refer: 111 1617 N 1 0 0 1 290 411 2
Refer: 113 1648 N 1 0 0 1 290 373 2
Refer: 68 -1 N 1 0 0 1 290 373 2
Refer: 70 -1 N 1 0 0 1 290 373 2
EndChar
StartChar: uni0640
Encoding: 1600 1600 178
Width: 260
VWidth: 0
Flags: HW
LayerCount: 3
Fore
SplineSet
265 0 m 9
 -5 0 l 17
 -5 105 l 9
 265 105 l 1
 265 0 l 9
EndSplineSet
EndChar
StartChar: uni064B
Encoding: 1611 1611 163
Width: 0
VWidth: -38
GlyphClass: 4
Flags: HW
LayerCount: 3
Fore
Refer: 166 1614 N 1 0 0 1 0 -2 2
Refer: 166 1614 N 1 0 0 1 0 104 2
Layer: 2
SplineSet
-124 101 m 0
 -128 115 -122 131 -108 135 c 0
 90 207 l 0
 104 211 120 206 124 192 c 0
 128 178 122 163 108 159 c 0
 -90 86 l 0
 -104 82 -120 87 -124 101 c 0
-124 -5 m 0
 -128 9 -122 25 -108 29 c 0
 90 101 l 0
 104 105 120 100 124 86 c 0
 128 72 122 57 108 53 c 0
 -90 -20 l 0
 -104 -24 -120 -19 -124 -5 c 0
EndSplineSet
EndChar
StartChar: uni064D
Encoding: 1613 1613 107
Width: 0
VWidth: 30
GlyphClass: 4
Flags: HW
LayerCount: 3
Fore
Refer: 105 1611 N 1 0 0 1 0 -231 2
Layer: 2
SplineSet
-124 -236 m 0
 -128 -222 -122 -206 -108 -202 c 0
 90 -130 l 0
 104 -126 120 -131 124 -145 c 0
 128 -159 122 -174 108 -178 c 0
 -90 -251 l 0
 -104 -255 -120 -250 -124 -236 c 0
-124 -130 m 0
 -128 -116 -122 -100 -108 -96 c 0
 90 -24 l 0
 104 -20 120 -25 124 -39 c 0
 128 -53 122 -68 108 -72 c 0
 -90 -145 l 0
 -104 -149 -120 -144 -124 -130 c 0
EndSplineSet
EndChar
StartChar: uni064F
Encoding: 1615 1615 167
Width: 0
VWidth: -33
GlyphClass: 4
Flags: HW
LayerCount: 3
Fore
SplineSet
-26 46 m 1
 -36 79 l 1
 -48 113 -30 153 4 163 c 1
 58 178 103 145 117 107 c 0
 127 79 117 43 81 29 c 0
 -86 -31 l 0
 -100 -35 -115 -30 -119 -16 c 0
 -123 -2 -118 13 -104 17 c 0
 -26 46 l 1
24 64 m 1
 63 79 l 0
 71 82 72 81 69 89 c 0
 65 103 42 118 18 112 c 1
 15 110 10 103 13 95 c 1
 24 64 l 1
EndSplineSet
Layer: 2
SplineSet
-26 46 m 1
 -36 79 l 1
 -48 113 -30 153 4 163 c 1
 58 178 103 145 117 107 c 0
 127 79 117 43 81 29 c 0
 -86 -31 l 0
 -100 -35 -115 -30 -119 -16 c 0
 -123 -2 -118 13 -104 17 c 0
 -26 46 l 1
24 64 m 1
 63 79 l 0
 71 82 72 81 69 89 c 0
 65 103 42 118 18 112 c 1
 15 110 10 103 13 95 c 1
 24 64 l 1
EndSplineSet
EndChar
StartChar: uni0650
Encoding: 1616 1616 168
Width: 0
VWidth: 20
GlyphClass: 4
Flags: HW
LayerCount: 3
Fore
Refer: 166 1614 N 1 0 0 1 0 -126 2
Layer: 2
SplineSet
-124 -129 m 0
 -128 -115 -122 -99 -108 -95 c 0
 90 -23 l 0
 104 -19 120 -24 124 -38 c 0
 128 -52 122 -67 108 -71 c 0
 -90 -144 l 0
 -104 -148 -120 -143 -124 -129 c 0
EndSplineSet
EndChar
StartChar: uni0653
Encoding: 1619 1619 127
Width: 0
VWidth: 0
GlyphClass: 4
Flags: HW
AnchorPoint: "arHamzaAbove" 0 0 mark 0
LayerCount: 3
Fore
SplineSet
-104 0 m 1
 -174 0 l 1
 -174 53 l 2
 -174 96 -141 125 -100 125 c 2
 139 125 l 1
 139 55 l 1
 -124 55 l 1
 -104 75 l 1
 -104 0 l 1
EndSplineSet
Layer: 2
SplineSet
-104 0 m 1
 -174 0 l 1
 -174 53 l 2
 -174 96 -141 125 -100 125 c 2
 139 125 l 1
 139 55 l 1
 -124 55 l 1
 -104 75 l 1
 -104 0 l 1
EndSplineSet
EndChar
StartChar: uni0654
Encoding: 1620 1620 128
Width: 0
VWidth: 0
GlyphClass: 4
Flags: HW
LayerCount: 3
Fore
Refer: 76 -1 N 1 0 0 1 0 0 2
Layer: 2
SplineSet
96 181 m 1
 96 111 l 1
 33 111 l 1
 54 66 l 2
 59 54 70 36 56 18 c 0
 44 1 23 0 14 0 c 2
 -96 0 l 1
 -96 70 l 1
 -25 70 l 1
 -46 114 l 2
 -46 114 -62 139 -49 160 c 0
 -42 171 -27 181 -4 181 c 2
 96 181 l 1
EndSplineSet
Refer: 171 1648 N 1 0 0 1 0 220 2
Refer: 169 1617 N 1 0 0 1 0 258 2
Refer: 166 1614 N 1 0 0 1 0 241 2
Refer: 163 1611 N 1 0 0 1 0 258 2
Refer: 164 1612 N 1 0 0 1 0 253 2
Refer: 167 1615 N 1 0 0 1 0 254 2
Refer: 170 1618 N 1 0 0 1 0 256 2
EndChar
StartChar: uni0655
Encoding: 1621 1621 94
Width: 0
VWidth: 0
GlyphClass: 4
Flags: HW
LayerCount: 3
Fore
Refer: 76 -1 N 1 0 0 1 0 -181 2
Layer: 2
SplineSet
96 0 m 1
 96 -70 l 1
 33 -70 l 1
 54 -115 l 2
 59 -127 70 -145 56 -163 c 0
 44 -180 23 -181 14 -181 c 2
 -96 -181 l 1
 -96 -111 l 1
 -25 -111 l 1
 -46 -67 l 2
 -46 -67 -62 -42 -49 -21 c 0
 -42 -10 -27 0 -4 0 c 2
 96 0 l 1
EndSplineSet
Refer: 115 1622 N 1 0 0 1 0 -220 2
Refer: 108 1613 N 1 0 0 1 0 -250 2
Refer: 111 1616 N 1 0 0 1 0 -241 2
EndChar
StartChar: uni0656
Encoding: 1622 1622 172
Width: 0
VWidth: -36
GlyphClass: 4
Flags: HW
AnchorPoint: "arMarkBelowDot" 0 0 mark 0
LayerCount: 3
Fore
Refer: 171 1648 N 1 0 0 1 0 -178 2
Layer: 2
SplineSet
18 0 m 25
 18 -145 l 2
 18 -149 18 -178 -18 -178 c 1
 -18 0 l 25
 18 0 l 25
EndSplineSet
EndChar
StartChar: uni0660
Encoding: 1632 1632 173
Width: 350
VWidth: 0
GlyphClass: 2
Flags: HW
LayerCount: 3
Fore
SplineSet
100 329 m 0
 100 370.400390625 133.599609375 404 175 404 c 0
 216.400390625 404 250 370.400390625 250 329 c 0
 250 287.599609375 216.400390625 254 175 254 c 0
 133.599609375 254 100 287.599609375 100 329 c 0
EndSplineSet
EndChar
StartChar: uni0664
Encoding: 1636 1636 18
Width: 464
VWidth: 0
GlyphClass: 2
Flags: HW
LayerCount: 3
Fore
SplineSet
273.138671875 650.224609375 m 1
 335.534179688 565.775390625 l 1
 207.336914062 471.055664062 l 2
 172.336914062 445.25 l 1
 172.086914062 465.5 l 1
 284.336914062 388 l 2
 321.6640625 362.228515625 318.275390625 318.856445312 296.336914062 287 c 2
 181.333007812 120 l 2
 162.501953125 92.6552734375 l 1
 151.151367188 105.359375 l 1
 414.522460938 104.5 l 1
 414.151367188 -0.5 l 1
 131.244140625 0.5 l 2
 90.7705078125 0.5 49.9541015625 32.2451171875 50 75.50390625 c 0
 50.048828125 121.688476562 76.5390625 153.717773438 90.416015625 173.235351562 c 2
 194.131835938 322.618164062 l 1
 109.59375 380.73828125 l 2
 45.2353515625 425.073242188 59.6748046875 493.374023438 116.336914062 534.37109375 c 2
 273.138671875 650.224609375 l 1
EndSplineSet
EndChar
StartChar: uni066A
Encoding: 1642 1642 118
Width: 522
GlyphClass: 2
Flags: HMW
LayerCount: 3
Fore
SplineSet
39 -12 m 1
 397 667 l 1
 483 667 l 1
 124 -12 l 1
 39 -12 l 1
EndSplineSet
Refer: 116 1632 N 1 0 0 1 240 -266 2
Refer: 116 1632 N 1 0 0 1 -68 263 2
EndChar
StartChar: uni0670
Encoding: 1648 1648 171
Width: 0
VWidth: -36
GlyphClass: 4
Flags: HW
AnchorPoint: "arMarkAboveDot" 0 0 mark 0
LayerCount: 3
Fore
SplineSet
18 178 m 25
 18 33 l 2
 18 29 18 0 -18 0 c 1
 -18 178 l 25
 18 178 l 25
EndSplineSet
Layer: 2
SplineSet
18 178 m 25
 18 33 l 2
 18 29 18 0 -18 0 c 1
 -18 178 l 25
 18 178 l 25
EndSplineSet
EndChar
StartChar: uni06D4
Encoding: 1748 1748 177
Width: 387
VWidth: 0
GlyphClass: 2
Flags: HW
LayerCount: 3
Fore
SplineSet
151 105 m 1
 323 105 l 1
 236 0 l 1
 64 0 l 1
 151 105 l 1
EndSplineSet
EndChar
StartChar: ar1Dot.above
Encoding: 65588 -1 68
Width: 0
VWidth: 0
GlyphClass: 4
Flags: HW
LayerCount: 3
Fore
SplineSet
-52 0 m 0
 -52 29 -29 52 0 52 c 0
 29 52 52 29 52 0 c 0
 52 -29 29 -52 0 -52 c 0
 -29 -52 -52 -29 -52 0 c 0
EndSplineSet
Layer: 2
SplineSet
-52 0 m 0
 -52 29 -29 52 0 52 c 0
 29 52 52 29 52 0 c 0
 52 -29 29 -52 0 -52 c 0
 -29 -52 -52 -29 -52 0 c 0
EndSplineSet
Refer: 171 1648 N 1 0 0 1 0 110 2
Refer: 169 1617 N 1 0 0 1 0 148 2
Refer: 166 1614 N 1 0 0 1 0 131 2
Refer: 163 1611 N 1 0 0 1 0 148 2
Refer: 164 1612 N 1 0 0 1 0 143 2
Refer: 167 1615 N 1 0 0 1 0 144 2
Refer: 170 1618 N 1 0 0 1 0 146 2
EndChar
StartChar: ar1Dot.below
Encoding: 65592 -1 72
Width: 0
VWidth: 0
GlyphClass: 4
Flags: HW
AnchorPoint: "arMarkBelowDot" 0 -110 basemark 0
LayerCount: 3
Fore
Refer: 68 -1 N 1 0 0 1 0 0 2
Layer: 2
SplineSet
-52 0 m 0
 -52 29 -29 52 0 52 c 0
 29 52 52 29 52 0 c 0
 52 -29 29 -52 0 -52 c 0
 -29 -52 -52 -29 -52 0 c 0
EndSplineSet
EndChar
StartChar: ar2Dot.above
Encoding: 65589 -1 69
Width: 0
VWidth: 0
GlyphClass: 4
Flags: HW
LayerCount: 3
Fore
Refer: 68 -1 N 1 0 0 1 88 0 2
Refer: 68 -1 N 1 0 0 1 -88 0 2
Layer: 2
SplineSet
-140 0 m 0
 -140 29 -117 52 -88 52 c 0
 -59 52 -36 29 -36 0 c 0
 -36 -29 -59 -52 -88 -52 c 0
 -117 -52 -140 -29 -140 0 c 0
36 0 m 0
 36 29 59 52 88 52 c 0
 117 52 140 29 140 0 c 0
 140 -29 117 -52 88 -52 c 0
 59 -52 36 -29 36 0 c 0
EndSplineSet
Refer: 171 1648 N 1 0 0 1 0 110 2
Refer: 169 1617 N 1 0 0 1 0 148 2
Refer: 166 1614 N 1 0 0 1 0 131 2
Refer: 163 1611 N 1 0 0 1 0 148 2
Refer: 164 1612 N 1 0 0 1 0 143 2
Refer: 167 1615 N 1 0 0 1 0 144 2
Refer: 170 1618 N 1 0 0 1 0 146 2
EndChar
StartChar: ar2Dot.below
Encoding: 65593 -1 73
Width: 0
VWidth: 0
GlyphClass: 4
Flags: HW
LayerCount: 3
Fore
Refer: 69 -1 N 1 0 0 1 0 0 2
Layer: 2
SplineSet
36 0 m 0
 36 29 59 52 88 52 c 0
 117 52 140 29 140 0 c 0
 140 -29 117 -52 88 -52 c 0
 59 -52 36 -29 36 0 c 0
-140 0 m 0
 -140 29 -117 52 -88 52 c 0
 -59 52 -36 29 -36 0 c 0
 -36 -29 -59 -52 -88 -52 c 0
 -117 -52 -140 -29 -140 0 c 0
EndSplineSet
Refer: 172 1622 N 1 0 0 1 0 -110 2
Refer: 165 1613 N 1 0 0 1 0 -140 2
Refer: 168 1616 N 1 0 0 1 0 -131 2
EndChar
StartChar: ar3Dot.above
Encoding: 65590 -1 70
Width: 0
VWidth: 0
GlyphClass: 4
Flags: HW
AnchorPoint: "arMarkAboveDot" 0 235 basemark 0
LayerCount: 3
Fore
Refer: 68 -1 N 1 0 0 1 0 125 2
Refer: 69 -1 N 1 0 0 1 0 0 2
Layer: 2
SplineSet
36 0 m 0
 36 29 59 52 88 52 c 0
 117 52 140 29 140 0 c 0
 140 -29 117 -52 88 -52 c 0
 59 -52 36 -29 36 0 c 0
-140 0 m 0
 -140 29 -117 52 -88 52 c 0
 -59 52 -36 29 -36 0 c 0
 -36 -29 -59 -52 -88 -52 c 0
 -117 -52 -140 -29 -140 0 c 0
-52 125 m 0
 -52 154 -29 177 0 177 c 0
 29 177 52 154 52 125 c 0
 52 96 29 73 0 73 c 0
 -29 73 -52 96 -52 125 c 0
EndSplineSet
EndChar
StartChar: ar3IDot.above
Encoding: 65591 -1 71
Width: 0
VWidth: 0
GlyphClass: 4
Flags: HW
LayerCount: 3
Fore
Refer: 69 -1 N 1 0 0 1 0 115 2
Refer: 68 -1 N 1 0 0 1 0 0 2
Layer: 2
SplineSet
-52 0 m 0
 -52 29 -29 52 0 52 c 0
 29 52 52 29 52 0 c 0
 52 -29 29 -52 0 -52 c 0
 -29 -52 -52 -29 -52 0 c 0
36 115 m 0
 36 144 59 167 88 167 c 0
 117 167 140 144 140 115 c 0
 140 86 117 63 88 63 c 0
 59 63 36 86 36 115 c 0
-140 115 m 0
 -140 144 -117 167 -88 167 c 0
 -59 167 -36 144 -36 115 c 0
 -36 86 -59 63 -88 63 c 0
 -117 63 -140 86 -140 115 c 0
EndSplineSet
Refer: 114 1648 N 1 0 0 1 0 235 2
Refer: 112 1617 N 1 0 0 1 0 273 2
Refer: 109 1614 N 1 0 0 1 0 256 2
Refer: 106 1611 N 1 0 0 1 0 273 2
Refer: 107 1612 N 1 0 0 1 0 268 2
Refer: 110 1615 N 1 0 0 1 0 269 2
Refer: 113 1618 N 1 0 0 1 0 271 2
EndChar
StartChar: ar3IDot.below
Encoding: 65595 -1 75
Width: 0
VWidth: 0
GlyphClass: 4
Flags: HW
LayerCount: 3
Fore
Refer: 71 -1 N 1 0 0 1 0 -115 2
Layer: 2
SplineSet
36 0 m 0
 36 29 59 52 88 52 c 0
 117 52 140 29 140 0 c 0
 140 -29 117 -52 88 -52 c 0
 59 -52 36 -29 36 0 c 0
-140 0 m 0
 -140 29 -117 52 -88 52 c 0
 -59 52 -36 29 -36 0 c 0
 -36 -29 -59 -52 -88 -52 c 0
 -117 -52 -140 -29 -140 0 c 0
-52 -115 m 0
 -52 -86 -29 -63 0 -63 c 0
 29 -63 52 -86 52 -115 c 0
 52 -144 29 -167 0 -167 c 0
 -29 -167 -52 -144 -52 -115 c 0
EndSplineSet
Refer: 115 1622 N 1 0 0 1 0 -225 2
Refer: 108 1613 N 1 0 0 1 0 -255 2
Refer: 111 1616 N 1 0 0 1 0 -246 2
EndChar
StartChar: arAin.init
Encoding: 65567 -1 41
Width: 518
VWidth: 0
GlyphClass: 2
Flags: HW
LayerCount: 3
Fore
SplineSet
0 0 m 1
 0 105 l 1
 468 105 l 1
 468 0 l 1
 0 0 l 1
433 357 m 1
 403 257 l 1
 274 296 208 276 194 262 c 0
 187 255 172 205 278 102 c 1
 204 26 l 1
 99 128 38 251 119 335 c 0
 183 401 298 398 433 357 c 1
EndSplineSet
Layer: 2
Refer: 75 -1 N 1 0 0 1 254 -149 2
Refer: 73 -1 N 1 0 0 1 254 -149 2
Refer: 172 1622 N 1 0 0 1 254 -149 2
Refer: 165 1613 N 1 0 0 1 254 -179 2
Refer: 71 -1 N 1 0 0 1 253 493 2
Refer: 69 -1 N 1 0 0 1 253 493 2
Refer: 171 1648 N 1 0 0 1 253 493 2
Refer: 169 1617 N 1 0 0 1 253 531 2
Refer: 166 1614 N 1 0 0 1 253 514 2
Refer: 163 1611 N 1 0 0 1 253 531 2
Refer: 164 1612 N 1 0 0 1 253 526 2
Refer: 167 1615 N 1 0 0 1 253 527 2
Refer: 170 1618 N 1 0 0 1 253 529 2
Refer: 68 -1 N 1 0 0 1 253 493 2
Refer: 70 -1 N 1 0 0 1 253 493 2
Refer: 89 -1 N 1 0 0 1 253 493 2
Refer: 168 1616 N 1 0 0 1 254 -170 2
Refer: 72 -1 N 1 0 0 1 254 -149 2
Refer: 74 -1 N 1 0 0 1 254 -149 2
EndChar
StartChar: arAin.isol
Encoding: 65544 -1 8
Width: 482
VWidth: 0
GlyphClass: 2
Flags: HW
LayerCount: 3
Fore
SplineSet
432 -168 m 1
 432 -273 l 1
 144 -273 l 2
 89 -273 50 -226 50 -173 c 2
 50 5 l 2
 50 58 89 105 146 105 c 2
 432 105 l 1
 432 0 l 1
 135 0 l 1
 155 20 l 1
 155 -188 l 1
 135 -168 l 1
 432 -168 l 1
413 304 m 1
 373 206 l 1
 357 213 343 218 331 221 c 0
 274 237 245 226 239 221 c 0
 238 220 215 185 303 89 c 1
 225 17 l 1
 135 114 91 228 168 298 c 0
 216 342 287 343 359 323 c 0
 377 318 395 311 413 304 c 1
EndSplineSet
Layer: 2
Refer: 75 -1 N 1 0 0 1 281 -82 2
Refer: 73 -1 N 1 0 0 1 281 -82 2
Refer: 115 1622 N 1 0 0 1 281 -82 2
Refer: 108 1613 N 1 0 0 1 281 -112 2
Refer: 71 -1 N 1 0 0 1 258 463 2
Refer: 69 -1 N 1 0 0 1 258 463 2
Refer: 114 1648 N 1 0 0 1 258 463 2
Refer: 112 1617 N 1 0 0 1 258 501 2
Refer: 109 1614 N 1 0 0 1 258 484 2
Refer: 106 1611 N 1 0 0 1 258 501 2
Refer: 107 1612 N 1 0 0 1 258 496 2
Refer: 110 1615 N 1 0 0 1 258 497 2
Refer: 113 1618 N 1 0 0 1 258 499 2
Refer: 68 -1 N 1 0 0 1 258 463 2
Refer: 70 -1 N 1 0 0 1 258 463 2
Refer: 89 -1 N 1 0 0 1 258 463 2
Refer: 111 1616 N 1 0 0 1 281 -103 2
Refer: 72 -1 N 1 0 0 1 281 -82 2
Refer: 74 -1 N 1 0 0 1 281 -82 2
EndChar
StartChar: arAlef.fina.1
Encoding: 65557 -1 31
Width: 0
VWidth: 0
GlyphClass: 2
Flags: HW
LayerCount: 3
Back
SplineSet
283 624 m 5
 388 624 l 5
 388 104 l 2
 388 44 339 0 282 0 c 2
 50 0 l 1
 50 105 l 1
 302 105 l 17
 303 105 283 84 283 84 c 1
 283 624 l 5
80.6015625 665.295898438 m 1
 181.3984375 694.704101562 l 1
 312.3984375 245.704101562 l 1
 211.6015625 216.295898438 l 1
 80.6015625 665.295898438 l 1
198 263 m 1
 301 263 l 17
 290 200 252 141 161 90 c 1
 78 90 l 1
 146 123 200 161 198 263 c 1
EndSplineSet
Fore
SplineSet
73 632 m 1
 173 662 l 1
 294 246 l 1
 194 216 l 1
 73 632 l 1
180 263 m 1
 283 263 l 17
 272 200 234 141 143 90 c 1
 60 90 l 1
 128 123 182 161 180 263 c 1
EndSplineSet
Layer: 2
Refer: 89 -1 N 1 0 0 1 107 738 2
Refer: 70 -1 N 1 0 0 1 107 738 2
Refer: 68 -1 N 1 0 0 1 107 738 2
Refer: 113 1618 N 1 0 0 1 107 774 2
Refer: 110 1615 N 1 0 0 1 107 772 2
Refer: 107 1612 N 1 0 0 1 107 771 2
Refer: 93 1620 N 1 0 0 1 107 738 2
Refer: 88 -1 N 1 0 0 1 107 738 2
Refer: 75 -1 N 1 0 0 1 87 -99 2
Refer: 73 -1 N 1 0 0 1 87 -99 2
Refer: 115 1622 N 1 0 0 1 87 -99 2
Refer: 108 1613 N 1 0 0 1 87 -129 2
Refer: 94 1621 N 1 0 0 1 87 -99 2
Refer: 111 1616 N 1 0 0 1 87 -120 2
Refer: 72 -1 N 1 0 0 1 87 -99 2
Refer: 74 -1 N 1 0 0 1 87 -99 2
Refer: 76 -1 N 1 0 0 1 107 738 2
Refer: 92 1619 N 1 0 0 1 107 738 2
Refer: 106 1611 N 1 0 0 1 107 776 2
Refer: 109 1614 N 1 0 0 1 107 759 2
Refer: 112 1617 N 1 0 0 1 107 776 2
Refer: 114 1648 N 1 0 0 1 107 738 2
Refer: 69 -1 N 1 0 0 1 107 738 2
Refer: 71 -1 N 1 0 0 1 107 738 2
EndChar
StartChar: arAlef.isol
Encoding: 65536 -1 0
Width: 275
VWidth: 0
GlyphClass: 2
Flags: HW
LayerCount: 3
Fore
SplineSet
85 624 m 1
 190 624 l 1
 190 110 l 2
 190 47 151 0 85 0 c 1
 85 624 l 1
EndSplineSet
Layer: 2
Refer: 89 -1 N 1 0 0 1 136 664 2
Refer: 70 -1 N 1 0 0 1 136 664 2
Refer: 68 -1 N 1 0 0 1 136 664 2
Refer: 127 1619 N 1 0 0 1 136 664 2
Refer: 76 -1 N 1 0 0 1 136 664 2
Refer: 170 1618 N 1 0 0 1 136 700 2
Refer: 167 1615 N 1 0 0 1 136 698 2
Refer: 164 1612 N 1 0 0 1 136 697 2
Refer: 75 -1 N 1 0 0 1 136 -29 2
Refer: 73 -1 N 1 0 0 1 136 -29 2
Refer: 129 1621 N 1 0 0 1 136 -29 2
Refer: 168 1616 N 1 0 0 1 136 -50 2
Refer: 165 1613 N 1 0 0 1 136 -59 2
Refer: 172 1622 N 1 0 0 1 136 -29 2
Refer: 72 -1 N 1 0 0 1 136 -29 2
Refer: 74 -1 N 1 0 0 1 136 -29 2
Refer: 163 1611 N 1 0 0 1 136 702 2
Refer: 166 1614 N 1 0 0 1 136 685 2
Refer: 169 1617 N 1 0 0 1 136 702 2
Refer: 171 1648 N 1 0 0 1 136 664 2
Refer: 88 -1 N 1 0 0 1 136 664 2
Refer: 128 1620 N 1 0 0 1 136 664 2
Refer: 69 -1 N 1 0 0 1 136 664 2
Refer: 71 -1 N 1 0 0 1 136 664 2
EndChar
StartChar: arBeh.init
Encoding: 65563 -1 37
Width: 445
VWidth: 0
GlyphClass: 2
Flags: HW
LayerCount: 3
Fore
SplineSet
290 376 m 1
 395 376 l 1
 395 104 l 2
 395 44 346 0 289 0 c 2
 0 0 l 1
 0 105 l 1
 309 105 l 17
 310 105 290 84 290 84 c 1
 290 376 l 1
EndSplineSet
Layer: 2
Refer: 89 -1 N 1 0 0 1 199 491 2
Refer: 70 -1 N 1 0 0 1 199 491 2
Refer: 68 -1 N 1 0 0 1 199 491 2
Refer: 113 1618 N 1 0 0 1 199 527 2
Refer: 110 1615 N 1 0 0 1 199 525 2
Refer: 107 1612 N 1 0 0 1 199 524 2
Refer: 93 1620 N 1 0 0 1 199 491 2
Refer: 88 -1 N 1 0 0 1 199 491 2
Refer: 75 -1 N 1 0 0 1 199 -149 2
Refer: 73 -1 N 1 0 0 1 199 -149 2
Refer: 115 1622 N 1 0 0 1 199 -149 2
Refer: 108 1613 N 1 0 0 1 199 -179 2
Refer: 111 1616 N 1 0 0 1 199 -170 2
Refer: 72 -1 N 1 0 0 1 199 -149 2
Refer: 74 -1 N 1 0 0 1 199 -149 2
Refer: 76 -1 N 1 0 0 1 199 491 2
Refer: 92 1619 N 1 0 0 1 199 491 2
Refer: 106 1611 N 1 0 0 1 199 529 2
Refer: 109 1614 N 1 0 0 1 199 512 2
Refer: 112 1617 N 1 0 0 1 199 529 2
Refer: 114 1648 N 1 0 0 1 199 491 2
Refer: 69 -1 N 1 0 0 1 199 491 2
Refer: 71 -1 N 1 0 0 1 199 491 2
EndChar
StartChar: arBeh.isol
Encoding: 65540 -1 4
Width: 877
VWidth: 0
GlyphClass: 2
Flags: HW
LayerCount: 3
Fore
SplineSet
667 300 m 1
 772 300 l 1
 772 105 l 2
 772 47 725 0 668 0 c 2
 276 0 l 2
 189 0 105 66 105 160 c 2
 105 300 l 1
 210 300 l 1
 210 160 l 2
 210 134 237 105 276 105 c 2
 687 105 l 1
 667 86 l 1
 667 300 l 1
EndSplineSet
Layer: 2
Refer: 75 -1 N 1 0 0 1 457 -109 2
Refer: 73 -1 N 1 0 0 1 457 -109 2
Refer: 172 1622 N 1 0 0 1 457 -109 2
Refer: 165 1613 N 1 0 0 1 457 -139 2
Refer: 71 -1 N 1 0 0 1 437 394 2
Refer: 69 -1 N 1 0 0 1 437 394 2
Refer: 171 1648 N 1 0 0 1 437 394 2
Refer: 169 1617 N 1 0 0 1 437 432 2
Refer: 166 1614 N 1 0 0 1 437 415 2
Refer: 163 1611 N 1 0 0 1 437 432 2
Refer: 164 1612 N 1 0 0 1 437 427 2
Refer: 167 1615 N 1 0 0 1 437 428 2
Refer: 170 1618 N 1 0 0 1 437 430 2
Refer: 68 -1 N 1 0 0 1 437 394 2
Refer: 70 -1 N 1 0 0 1 437 394 2
Refer: 89 -1 N 1 0 0 1 437 394 2
Refer: 168 1616 N 1 0 0 1 457 -130 2
Refer: 72 -1 N 1 0 0 1 457 -109 2
Refer: 74 -1 N 1 0 0 1 457 -109 2
EndChar
StartChar: arDal.isol
Encoding: 65538 -1 2
Width: 578
VWidth: 0
GlyphClass: 2
Flags: HW
LayerCount: 3
Fore
SplineSet
212 283 m 1
 258 377 l 1
 326 343 474 266 474 104 c 0
 474 46 428 0 369 -0 c 2
 105 -0 l 1
 105 105 l 1
 388 105 l 1
 368 84 l 1
 372 195 284 247 212 283 c 1
EndSplineSet
Layer: 2
Refer: 89 -1 N 1 0 0 1 248 480 2
Refer: 70 -1 N 1 0 0 1 248 480 2
Refer: 68 -1 N 1 0 0 1 248 480 2
Refer: 170 1618 N 1 0 0 1 248 516 2
Refer: 167 1615 N 1 0 0 1 248 514 2
Refer: 164 1612 N 1 0 0 1 248 513 2
Refer: 75 -1 N 1 0 0 1 244 -72 2
Refer: 73 -1 N 1 0 0 1 244 -72 2
Refer: 172 1622 N 1 0 0 1 244 -72 2
Refer: 165 1613 N 1 0 0 1 244 -102 2
Refer: 168 1616 N 1 0 0 1 244 -93 2
Refer: 72 -1 N 1 0 0 1 244 -72 2
Refer: 74 -1 N 1 0 0 1 244 -72 2
Refer: 163 1611 N 1 0 0 1 248 518 2
Refer: 166 1614 N 1 0 0 1 248 501 2
Refer: 169 1617 N 1 0 0 1 248 518 2
Refer: 171 1648 N 1 0 0 1 248 480 2
Refer: 69 -1 N 1 0 0 1 248 480 2
Refer: 71 -1 N 1 0 0 1 248 480 2
EndChar
StartChar: arFeh.fina
Encoding: 65574 -1 51
Width: 930
VWidth: 0
GlyphClass: 2
Flags: HW
LayerCount: 3
Fore
SplineSet
950 105 m 1
 950 0 l 1
 751 0 l 2
 667 0 563 -14 500 90 c 0
 442 186 492 297 561 342 c 0
 638 391 768 386 829 290 c 0
 846 262 855 228 855 191 c 2
 855 -93 l 2
 855 -148 811 -200 748 -200 c 2
 256 -200 l 2
 175 -200 105 -142 105 -53 c 2
 105 99 l 1
 209 99 l 1
 209 -53 l 2
 209 -80 223 -94 256 -94 c 2
 770 -94 l 17
 751 -114 l 1
 751 191 l 2
 751 221 735 243 712 256 c 0
 684 272 646 272 617 254 c 0
 588 235 568 180 590 144 c 0
 617 99 646 105 751 105 c 2
 950 105 l 1
EndSplineSet
Layer: 2
Refer: 89 -1 N 1 0 0 1 659 479 2
Refer: 70 -1 N 1 0 0 1 659 479 2
Refer: 68 -1 N 1 0 0 1 659 479 2
Refer: 170 1618 N 1 0 0 1 659 515 2
Refer: 167 1615 N 1 0 0 1 659 513 2
Refer: 164 1612 N 1 0 0 1 659 512 2
Refer: 75 -1 N 1 0 0 1 469 -299 2
Refer: 73 -1 N 1 0 0 1 469 -299 2
Refer: 172 1622 N 1 0 0 1 469 -299 2
Refer: 165 1613 N 1 0 0 1 469 -329 2
Refer: 168 1616 N 1 0 0 1 469 -320 2
Refer: 72 -1 N 1 0 0 1 469 -299 2
Refer: 74 -1 N 1 0 0 1 469 -299 2
Refer: 163 1611 N 1 0 0 1 659 517 2
Refer: 166 1614 N 1 0 0 1 659 500 2
Refer: 169 1617 N 1 0 0 1 659 517 2
Refer: 171 1648 N 1 0 0 1 659 479 2
Refer: 69 -1 N 1 0 0 1 659 479 2
Refer: 71 -1 N 1 0 0 1 659 479 2
EndChar
StartChar: arFeh.init
Encoding: 65577 -1 53
Width: 510
VWidth: 0
GlyphClass: 2
Flags: HW
LayerCount: 3
Fore
SplineSet
0 105 m 9
 374 105 l 17
 354 86 l 1
 354 331 l 2
 354 368 328 396 295 405 c 0
 272 411 245 409 221 394 c 0
 192 375 172 320 194 284 c 0
 221 239 243 228 408 236 c 1
 408 160 l 1
 300 156 167 126 104 230 c 0
 46 326 96 437 165 482 c 0
 242 531 372 526 433 430 c 0
 450 402 460 368 460 331 c 2
 460 107 l 2
 460 52 415 0 352 0 c 2
 0 0 l 17
 0 105 l 9
EndSplineSet
Layer: 2
Refer: 74 -1 N 1 0 0 1 273 -139 2
Refer: 72 -1 N 1 0 0 1 273 -139 2
Refer: 114 1622 N 1 0 0 1 273 -139 2
Refer: 107 1613 N 1 0 0 1 273 -169 2
Refer: 70 -1 N 1 0 0 1 263 619 2
Refer: 68 -1 N 1 0 0 1 263 619 2
Refer: 113 1648 N 1 0 0 1 263 619 2
Refer: 111 1617 N 1 0 0 1 263 657 2
Refer: 108 1614 N 1 0 0 1 263 640 2
Refer: 105 1611 N 1 0 0 1 263 657 2
Refer: 106 1612 N 1 0 0 1 263 652 2
Refer: 109 1615 N 1 0 0 1 263 653 2
Refer: 112 1618 N 1 0 0 1 263 655 2
Refer: 67 -1 N 1 0 0 1 263 619 2
Refer: 69 -1 N 1 0 0 1 263 619 2
Refer: 88 -1 N 1 0 0 1 263 619 2
Refer: 110 1616 N 1 0 0 1 273 -160 2
Refer: 71 -1 N 1 0 0 1 273 -139 2
Refer: 73 -1 N 1 0 0 1 273 -139 2
EndChar
StartChar: arFeh.isol
Encoding: 65552 -1 25
Width: 961
VWidth: 0
GlyphClass: 2
Flags: HW
LayerCount: 3
Fore
SplineSet
804 19 m 1
 696 15 564 -15 501 89 c 0
 443 185 492 296 561 341 c 0
 638 390 768 385 829 289 c 0
 846 261 856 227 856 190 c 2
 856 -93 l 2
 856 -148 811 -200 748 -200 c 2
 256 -200 l 2
 175 -200 105 -142 105 -53 c 2
 105 99 l 1
 210 99 l 1
 210 -53 l 2
 210 -80 223 -94 256 -94 c 2
 770 -94 l 17
 751 -114 l 1
 751 190 l 2
 751 227 725 255 692 264 c 0
 669 270 642 268 618 253 c 0
 589 234 568 179 590 143 c 0
 617 98 639 87 804 95 c 1
 804 19 l 1
EndSplineSet
Layer: 2
Refer: 89 -1 N 1 0 0 1 659 479 2
Refer: 70 -1 N 1 0 0 1 659 479 2
Refer: 68 -1 N 1 0 0 1 659 479 2
Refer: 170 1618 N 1 0 0 1 659 515 2
Refer: 167 1615 N 1 0 0 1 659 513 2
Refer: 164 1612 N 1 0 0 1 659 512 2
Refer: 75 -1 N 1 0 0 1 469 -299 2
Refer: 73 -1 N 1 0 0 1 469 -299 2
Refer: 172 1622 N 1 0 0 1 469 -299 2
Refer: 165 1613 N 1 0 0 1 469 -329 2
Refer: 168 1616 N 1 0 0 1 469 -320 2
Refer: 72 -1 N 1 0 0 1 469 -299 2
Refer: 74 -1 N 1 0 0 1 469 -299 2
Refer: 163 1611 N 1 0 0 1 659 517 2
Refer: 166 1614 N 1 0 0 1 659 500 2
Refer: 169 1617 N 1 0 0 1 659 517 2
Refer: 171 1648 N 1 0 0 1 659 479 2
Refer: 69 -1 N 1 0 0 1 659 479 2
Refer: 71 -1 N 1 0 0 1 659 479 2
EndChar
StartChar: arGaf.isol
Encoding: 65612 -1 152
Width: 750
VWidth: 0
GlyphClass: 2
Flags: HW
LayerCount: 3
Fore
SplineSet
152 105 m 1
 239 0 l 1
 137 0 l 1
 50 105 l 1
 152 105 l 1
EndSplineSet
Refer: 61 -1 N 1 0 0 1 137 0 2
Layer: 2
Refer: 154 -1 N 1 0 0 1 508 678 2
Refer: 74 -1 N 1 0 0 1 260 -149 2
Refer: 72 -1 N 1 0 0 1 260 -149 2
Refer: 168 1616 N 1 0 0 1 260 -170 2
Refer: 89 -1 N 1 0 0 1 226 650 2
Refer: 70 -1 N 1 0 0 1 226 650 2
Refer: 68 -1 N 1 0 0 1 226 650 2
Refer: 170 1618 N 1 0 0 1 226 686 2
Refer: 167 1615 N 1 0 0 1 226 684 2
Refer: 164 1612 N 1 0 0 1 226 683 2
Refer: 163 1611 N 1 0 0 1 226 688 2
Refer: 166 1614 N 1 0 0 1 226 671 2
Refer: 169 1617 N 1 0 0 1 226 688 2
Refer: 171 1648 N 1 0 0 1 226 650 2
Refer: 69 -1 N 1 0 0 1 226 650 2
Refer: 71 -1 N 1 0 0 1 226 650 2
Refer: 165 1613 N 1 0 0 1 260 -179 2
Refer: 172 1622 N 1 0 0 1 260 -149 2
Refer: 73 -1 N 1 0 0 1 260 -149 2
Refer: 75 -1 N 1 0 0 1 260 -149 2
EndChar
StartChar: arHah.init
Encoding: 65569 -1 43
Width: 612
VWidth: 0
GlyphClass: 2
Flags: HW
LayerCount: 3
Fore
SplineSet
0 0 m 1
 0 105 l 1
 388 105 l 1
 380 94 l 1
 372 101 362 109 353 118 c 0
 311 157 265 208 228 234 c 0
 182 267 136 278 95 288 c 1
 119 390 l 1
 160 380 224 365 288 320 c 0
 347 278 395 221 434 187 c 0
 486 141 492 144 559 144 c 1
 562 95 l 0
 564 60 545 0 483 0 c 0
 0 0 l 1
EndSplineSet
Layer: 2
Refer: 75 -1 N 1 0 0 1 253 -150 2
Refer: 73 -1 N 1 0 0 1 253 -150 2
Refer: 172 1622 N 1 0 0 1 253 -150 2
Refer: 165 1613 N 1 0 0 1 253 -180 2
Refer: 71 -1 N 1 0 0 1 188 487 2
Refer: 69 -1 N 1 0 0 1 188 487 2
Refer: 171 1648 N 1 0 0 1 188 487 2
Refer: 169 1617 N 1 0 0 1 188 525 2
Refer: 166 1614 N 1 0 0 1 188 508 2
Refer: 163 1611 N 1 0 0 1 188 525 2
Refer: 164 1612 N 1 0 0 1 188 520 2
Refer: 167 1615 N 1 0 0 1 188 521 2
Refer: 170 1618 N 1 0 0 1 188 523 2
Refer: 68 -1 N 1 0 0 1 188 487 2
Refer: 70 -1 N 1 0 0 1 188 487 2
Refer: 89 -1 N 1 0 0 1 188 487 2
Refer: 168 1616 N 1 0 0 1 253 -171 2
Refer: 72 -1 N 1 0 0 1 253 -150 2
Refer: 74 -1 N 1 0 0 1 253 -150 2
EndChar
StartChar: arHah.isol
Encoding: 65537 -1 1
Width: 678
VWidth: 0
GlyphClass: 2
Flags: HW
LayerCount: 3
Fore
SplineSet
482 -185 m 1
 482 -291 l 1
 241 -291 l 2
 163 -292 105 -233 105 -158 c 2
 105 -33 l 2
 105 39 160 105 245 105 c 2
 382 105 l 1
 379 109 377 110 375 113 c 0
 329 164 296 225 201 261 c 1
 239 359 l 1
 366 311 421 218 453 183 c 0
 501 130 505 136 573 136 c 1
 573 83 l 0
 573 60 556 0 494 0 c 2
 244 0 l 2
 227 0 209 -13 209 -33 c 2
 209 -158 l 2
 209 -175 219 -185 241 -185 c 2
 482 -185 l 1
EndSplineSet
Layer: 2
Refer: 75 -1 N 1 0 0 1 328 -95 2
Refer: 73 -1 N 1 0 0 1 328 -95 2
Refer: 172 1622 N 1 0 0 1 328 -95 2
Refer: 165 1613 N 1 0 0 1 328 -125 2
Refer: 71 -1 N 1 0 0 1 308 457 2
Refer: 69 -1 N 1 0 0 1 308 457 2
Refer: 171 1648 N 1 0 0 1 308 457 2
Refer: 169 1617 N 1 0 0 1 308 495 2
Refer: 166 1614 N 1 0 0 1 308 478 2
Refer: 163 1611 N 1 0 0 1 308 495 2
Refer: 164 1612 N 1 0 0 1 308 490 2
Refer: 167 1615 N 1 0 0 1 308 491 2
Refer: 170 1618 N 1 0 0 1 308 493 2
Refer: 68 -1 N 1 0 0 1 308 457 2
Refer: 70 -1 N 1 0 0 1 308 457 2
Refer: 89 -1 N 1 0 0 1 308 457 2
Refer: 168 1616 N 1 0 0 1 328 -116 2
Refer: 72 -1 N 1 0 0 1 328 -95 2
Refer: 74 -1 N 1 0 0 1 328 -95 2
EndChar
StartChar: arHah.isol2
Encoding: 65558 -1 32
Width: 678
VWidth: 0
GlyphClass: 2
Flags: HW
LayerCount: 3
Fore
SplineSet
105 -158 m 2
 105 -33 l 2
 105 39 160 105 245 105 c 2
 382 105 l 1
 378 109 377 110 375 113 c 0
 329 164 296 225 201 261 c 1
 239 359 l 1
 366 311 421 218 453 183 c 0
 501 130 505 136 573 136 c 1
 573 83 l 0
 573 60 556 0 494 0 c 2
 246 0 l 2
 229 0 211 -13 211 -33 c 2
 211 -267 l 1
 145 -267 105 -221 105 -158 c 2
EndSplineSet
Layer: 2
Refer: 75 -1 N 1 0 0 1 388 -94 2
Refer: 73 -1 N 1 0 0 1 388 -94 2
Refer: 172 1622 N 1 0 0 1 389 -94 2
Refer: 165 1613 N 1 0 0 1 389 -124 2
Refer: 71 -1 N 1 0 0 1 308 457 2
Refer: 69 -1 N 1 0 0 1 308 457 2
Refer: 171 1648 N 1 0 0 1 308 457 2
Refer: 169 1617 N 1 0 0 1 308 495 2
Refer: 166 1614 N 1 0 0 1 308 478 2
Refer: 163 1611 N 1 0 0 1 308 495 2
Refer: 164 1612 N 1 0 0 1 308 490 2
Refer: 167 1615 N 1 0 0 1 308 491 2
Refer: 170 1618 N 1 0 0 1 308 493 2
Refer: 68 -1 N 1 0 0 1 308 457 2
Refer: 70 -1 N 1 0 0 1 308 457 2
Refer: 89 -1 N 1 0 0 1 308 457 2
Refer: 168 1616 N 1 0 0 1 389 -115 2
Refer: 72 -1 N 1 0 0 1 388 -94 2
Refer: 74 -1 N 1 0 0 1 388 -94 2
EndChar
StartChar: arHeh.fina2
Encoding: 65622 -1 162
Width: 370
VWidth: 0
GlyphClass: 2
Flags: HW
LayerCount: 3
Fore
SplineSet
210 -81 m 1
 105 -81 l 1
 105 1 l 2
 105 61 154 105 211 105 c 2
 390 105 l 1
 390 0 l 1
 191 0 l 17
 190 0 210 21 210 21 c 1
 210 -81 l 1
EndSplineSet
Layer: 2
Refer: 75 -1 N 1 0 0 1 224 -149 2
Refer: 73 -1 N 1 0 0 1 224 -149 2
Refer: 172 1622 N 1 0 0 1 224 -149 2
Refer: 165 1613 N 1 0 0 1 224 -179 2
Refer: 71 -1 N 1 0 0 1 204 281 2
Refer: 69 -1 N 1 0 0 1 204 281 2
Refer: 128 1620 N 1 0 0 1 204 281 2
Refer: 88 -1 N 1 0 0 1 204 281 2
Refer: 171 1648 N 1 0 0 1 204 281 2
Refer: 169 1617 N 1 0 0 1 204 319 2
Refer: 166 1614 N 1 0 0 1 204 302 2
Refer: 163 1611 N 1 0 0 1 204 319 2
Refer: 164 1612 N 1 0 0 1 204 314 2
Refer: 167 1615 N 1 0 0 1 204 315 2
Refer: 170 1618 N 1 0 0 1 204 317 2
Refer: 76 -1 N 1 0 0 1 204 281 2
Refer: 127 1619 N 1 0 0 1 204 281 2
Refer: 68 -1 N 1 0 0 1 204 281 2
Refer: 70 -1 N 1 0 0 1 204 281 2
Refer: 89 -1 N 1 0 0 1 204 281 2
Refer: 168 1616 N 1 0 0 1 224 -170 2
Refer: 72 -1 N 1 0 0 1 224 -149 2
Refer: 74 -1 N 1 0 0 1 224 -149 2
EndChar
StartChar: arHeh.init
Encoding: 65568 -1 42
Width: 773
VWidth: 0
GlyphClass: 2
Flags: HW
LayerCount: 3
Fore
SplineSet
248 396 m 1
 250 500 l 1
 540 496 673 281 669 105 c 0
 668 46 622 0 564 0 c 2
 0 0 l 1
 0 105 l 1
 584 105 l 1
 563 86 l 1
 569 237 477 392 248 396 c 1
323 1 m 1
 321 105 l 1
 349 105 363 122 363 138 c 0
 363 146 359 161 346 181 c 0
 304 245 253 242 238 232 c 0
 231 227 224 220 224 200 c 2
 224 103 l 1
 120 103 l 1
 120 200 l 2
 120 250 142 295 180 320 c 0
 259 372 371 336 434 239 c 0
 455 206 467 173 468 140 c 0
 470 49 390 2 323 1 c 1
EndSplineSet
Layer: 2
Refer: 89 -1 N 1 0 0 1 336 628 2
Refer: 70 -1 N 1 0 0 1 336 628 2
Refer: 68 -1 N 1 0 0 1 336 628 2
Refer: 170 1618 N 1 0 0 1 336 664 2
Refer: 167 1615 N 1 0 0 1 336 662 2
Refer: 164 1612 N 1 0 0 1 336 661 2
Refer: 75 -1 N 1 0 0 1 336 -149 2
Refer: 73 -1 N 1 0 0 1 336 -149 2
Refer: 172 1622 N 1 0 0 1 336 -149 2
Refer: 165 1613 N 1 0 0 1 336 -179 2
Refer: 168 1616 N 1 0 0 1 336 -170 2
Refer: 72 -1 N 1 0 0 1 336 -149 2
Refer: 74 -1 N 1 0 0 1 336 -149 2
Refer: 163 1611 N 1 0 0 1 336 666 2
Refer: 166 1614 N 1 0 0 1 336 649 2
Refer: 169 1617 N 1 0 0 1 336 666 2
Refer: 171 1648 N 1 0 0 1 336 628 2
Refer: 69 -1 N 1 0 0 1 336 628 2
Refer: 71 -1 N 1 0 0 1 336 628 2
EndChar
StartChar: arHeh.init2
Encoding: 65621 -1 161
Width: 420
VWidth: 0
GlyphClass: 2
Flags: HW
AnchorPoint: "arMarkAbove" 119 491 basechar 0
AnchorPoint: "arDotAbove" 119 491 basechar 0
LayerCount: 3
Fore
SplineSet
284 -141 m 1
 332 -177 l 1
 266 -250 199 -247 167 -223 c 0
 140 -202 125 -165 134 -116 c 0
 149 -35 172 -1 236 67 c 1
 284 29 l 1
 248 -6 229 -29 218 -86 c 0
 210 -126 232 -180 284 -141 c 1
210 256 m 1
 315 256 l 1
 315 104 l 2
 315 44 266 0 209 0 c 2
 0 0 l 1
 0 105 l 1
 229 105 l 17
 230 105 210 84 210 84 c 1
 210 256 l 1
EndSplineSet
EndChar
StartChar: arHeh.isol
Encoding: 65548 -1 12
Width: 592
VWidth: 0
GlyphClass: 2
Flags: HW
LayerCount: 3
Fore
SplineSet
402 374 m 1
 302 415 l 1
 262 319 218 294 144 224 c 0
 86 169 98 81 147 37 c 0
 172 14 206 0 243 0 c 2
 383 0 l 2
 442 0 487 45 487 105 c 2
 487 364 l 1
 382 364 l 1
 382 86 l 1
 403 105 l 1
 243 105 l 2
 232 105 223 109 218 114 c 0
 208 123 205 133 218 149 c 0
 275 203 336 243 402 374 c 1
EndSplineSet
Layer: 2
Refer: 89 -1 N 1 0 0 1 380 505 2
Refer: 70 -1 N 1 0 0 1 380 505 2
Refer: 68 -1 N 1 0 0 1 380 505 2
Refer: 170 1618 N 1 0 0 1 380 541 2
Refer: 167 1615 N 1 0 0 1 380 539 2
Refer: 164 1612 N 1 0 0 1 380 538 2
Refer: 128 1620 N 1 0 0 1 380 450 2
Refer: 88 -1 N 1 0 0 1 380 450 2
Refer: 75 -1 N 1 0 0 1 314 -109 2
Refer: 73 -1 N 1 0 0 1 314 -109 2
Refer: 172 1622 N 1 0 0 1 314 -109 2
Refer: 165 1613 N 1 0 0 1 314 -139 2
Refer: 168 1616 N 1 0 0 1 314 -130 2
Refer: 72 -1 N 1 0 0 1 314 -109 2
Refer: 74 -1 N 1 0 0 1 314 -109 2
Refer: 76 -1 N 1 0 0 1 380 450 2
Refer: 127 1619 N 1 0 0 1 380 450 2
Refer: 163 1611 N 1 0 0 1 380 543 2
Refer: 166 1614 N 1 0 0 1 380 526 2
Refer: 169 1617 N 1 0 0 1 380 543 2
Refer: 171 1648 N 1 0 0 1 380 505 2
Refer: 69 -1 N 1 0 0 1 380 505 2
Refer: 71 -1 N 1 0 0 1 380 505 2
EndChar
StartChar: arHeh.medi2
Encoding: 65555 -1 28
Width: 589
VWidth: 0
GlyphClass: 2
Flags: HW
LayerCount: 3
Fore
SplineSet
449 -271 m 1
 344 -271 l 1
 344 1 l 2
 344 61 393 105 450 105 c 2
 609 105 l 1
 609 0 l 1
 430 0 l 17
 429 0 449 21 449 21 c 1
 449 -271 l 1
355 -252 m 1
 251 -272 l 1
 234 -182 210 -198 162 -120 c 0
 133 -73 131 -21 125 0 c 1
 0 0 l 1
 0 105 l 1
 138 105 l 2
 245 105 237 -40 252 -64 c 0
 276 -102 332 -134 355 -252 c 1
EndSplineSet
Layer: 2
Refer: 74 -1 N 1 0 0 1 351 -401 2
Refer: 72 -1 N 1 0 0 1 351 -401 2
Refer: 114 1622 N 1 0 0 1 351 -401 2
Refer: 107 1613 N 1 0 0 1 351 -431 2
Refer: 70 -1 N 1 0 0 1 293 233 2
Refer: 68 -1 N 1 0 0 1 293 233 2
Refer: 113 1648 N 1 0 0 1 293 233 2
Refer: 111 1617 N 1 0 0 1 293 271 2
Refer: 108 1614 N 1 0 0 1 293 254 2
Refer: 105 1611 N 1 0 0 1 293 271 2
Refer: 106 1612 N 1 0 0 1 293 266 2
Refer: 109 1615 N 1 0 0 1 293 267 2
Refer: 112 1618 N 1 0 0 1 293 269 2
Refer: 67 -1 N 1 0 0 1 293 233 2
Refer: 69 -1 N 1 0 0 1 293 233 2
Refer: 88 -1 N 1 0 0 1 293 233 2
Refer: 110 1616 N 1 0 0 1 351 -422 2
Refer: 71 -1 N 1 0 0 1 351 -401 2
Refer: 73 -1 N 1 0 0 1 351 -401 2
EndChar
StartChar: arKaf.above
Encoding: 65596 -1 76
Width: 0
VWidth: -36
GlyphClass: 4
Flags: HW
LayerCount: 3
Fore
SplineSet
96 181 m 1
 96 111 l 1
 33 111 l 1
 54 66 l 2
 59 54 70 36 56 18 c 0
 44 1 23 0 14 -0 c 2
 -96 -0 l 1
 -96 70 l 1
 -25 70 l 1
 -46 114 l 2
 -46 114 -62 139 -49 160 c 0
 -42 171 -27 181 -4 181 c 2
 96 181 l 1
EndSplineSet
Layer: 2
SplineSet
96 181 m 1
 96 111 l 1
 33 111 l 1
 54 66 l 2
 59 54 70 36 56 18 c 0
 44 1 23 0 14 -0 c 2
 -96 -0 l 1
 -96 70 l 1
 -25 70 l 1
 -46 114 l 2
 -46 114 -62 139 -49 160 c 0
 -42 171 -27 181 -4 181 c 2
 96 181 l 1
EndSplineSet
Refer: 171 1648 N 1 0 0 1 0 290 2
Refer: 169 1617 N 1 0 0 1 0 328 2
Refer: 166 1614 N 1 0 0 1 0 311 2
Refer: 163 1611 N 1 0 0 1 0 328 2
Refer: 164 1612 N 1 0 0 1 0 323 2
Refer: 167 1615 N 1 0 0 1 0 324 2
Refer: 170 1618 N 1 0 0 1 0 326 2
EndChar
StartChar: arKaf.init
Encoding: 65570 -1 44
Width: 613
VWidth: 0
GlyphClass: 2
Flags: HW
LayerCount: 3
Fore
SplineSet
0 0 m 1
 0 105 l 1
 473 105 l 1
 465 92 l 1
 179 384 l 2
 133 431 126 519 187 556 c 0
 301 626 504 671 557 672 c 1
 559 568 l 1
 537 567 319 519 229 460 c 1
 230 483 l 9
 535 172 l 2
 598 108 551 0 462 0 c 2
 0 0 l 1
EndSplineSet
Layer: 2
Refer: 154 -1 N 1 0 0 1 371 678 2
Refer: 74 -1 N 1 0 0 1 249 -149 2
Refer: 72 -1 N 1 0 0 1 249 -149 2
Refer: 168 1616 N 1 0 0 1 249 -170 2
Refer: 89 -1 N 1 0 0 1 89 650 2
Refer: 70 -1 N 1 0 0 1 89 650 2
Refer: 68 -1 N 1 0 0 1 89 650 2
Refer: 170 1618 N 1 0 0 1 309 706 2
Refer: 167 1615 N 1 0 0 1 309 704 2
Refer: 164 1612 N 1 0 0 1 309 703 2
Refer: 163 1611 N 1 0 0 1 309 708 2
Refer: 166 1614 N 1 0 0 1 309 691 2
Refer: 169 1617 N 1 0 0 1 309 708 2
Refer: 171 1648 N 1 0 0 1 309 670 2
Refer: 69 -1 N 1 0 0 1 89 650 2
Refer: 71 -1 N 1 0 0 1 89 650 2
Refer: 165 1613 N 1 0 0 1 249 -179 2
Refer: 172 1622 N 1 0 0 1 249 -149 2
Refer: 73 -1 N 1 0 0 1 249 -149 2
Refer: 75 -1 N 1 0 0 1 249 -149 2
EndChar
StartChar: arKaf.isol
Encoding: 65546 -1 10
Width: 615
VWidth: 0
GlyphClass: 2
Flags: HW
LayerCount: 3
Fore
SplineSet
460 624 m 1
 565 624 l 1
 565 104 l 2
 565 44 516 0 459 0 c 2
 137 0 l 1
 137 105 l 1
 479 105 l 17
 480 105 460 84 460 84 c 1
 460 624 l 1
152 105 m 1
 239 0 l 1
 137 0 l 1
 50 105 l 1
 152 105 l 1
EndSplineSet
Layer: 2
Refer: 89 -1 N 1 0 0 1 515 673 2
Refer: 70 -1 N 1 0 0 1 515 673 2
Refer: 68 -1 N 1 0 0 1 515 673 2
Refer: 170 1618 N 1 0 0 1 515 709 2
Refer: 167 1615 N 1 0 0 1 515 707 2
Refer: 164 1612 N 1 0 0 1 515 706 2
Refer: 75 -1 N 1 0 0 1 314 -109 2
Refer: 73 -1 N 1 0 0 1 314 -109 2
Refer: 172 1622 N 1 0 0 1 314 -109 2
Refer: 165 1613 N 1 0 0 1 314 -139 2
Refer: 127 1619 N 1 0 0 1 265 271 2
Refer: 76 -1 N 1 0 0 1 265 271 2
Refer: 88 -1 N 1 0 0 1 265 271 2
Refer: 128 1620 N 1 0 0 1 265 271 2
Refer: 168 1616 N 1 0 0 1 314 -130 2
Refer: 72 -1 N 1 0 0 1 314 -109 2
Refer: 74 -1 N 1 0 0 1 314 -109 2
Refer: 163 1611 N 1 0 0 1 515 711 2
Refer: 166 1614 N 1 0 0 1 515 694 2
Refer: 169 1617 N 1 0 0 1 515 711 2
Refer: 171 1648 N 1 0 0 1 515 673 2
Refer: 69 -1 N 1 0 0 1 515 673 2
Refer: 71 -1 N 1 0 0 1 515 673 2
EndChar
StartChar: arLam.init.1
Encoding: 65556 -1 30
Width: 438
VWidth: 0
GlyphClass: 2
Flags: HW
LayerCount: 3
Back
SplineSet
283 660 m 1
 388 660 l 1
 388 104 l 2
 388 44 339 0 282 0 c 2
 50 0 l 1
 50 105 l 1
 302 105 l 17
 303 105 283 84 283 84 c 1
 283 660 l 1
80.6015625 665.295898438 m 1
 181.3984375 694.704101562 l 1
 312.3984375 245.704101562 l 1
 211.6015625 216.295898438 l 1
 80.6015625 665.295898438 l 1
198 263 m 1
 301 263 l 17
 290 200 252 141 161 90 c 1
 78 90 l 1
 146 123 200 161 198 263 c 1
EndSplineSet
Fore
SplineSet
283 624 m 1
 388 624 l 1
 388 104 l 2
 388 44 339 0 282 0 c 2
 50 0 l 1
 50 105 l 1
 302 105 l 17
 303 105 283 84 283 84 c 1
 283 624 l 1
EndSplineSet
Layer: 2
Refer: 89 -1 N 1 0 0 1 336 724 2
Refer: 70 -1 N 1 0 0 1 336 724 2
Refer: 68 -1 N 1 0 0 1 336 724 2
Refer: 170 1618 N 1 0 0 1 336 760 2
Refer: 167 1615 N 1 0 0 1 336 758 2
Refer: 164 1612 N 1 0 0 1 336 757 2
Refer: 75 -1 N 1 0 0 1 336 -99 2
Refer: 73 -1 N 1 0 0 1 336 -99 2
Refer: 172 1622 N 1 0 0 1 336 -99 2
Refer: 165 1613 N 1 0 0 1 336 -129 2
Refer: 168 1616 N 1 0 0 1 336 -120 2
Refer: 72 -1 N 1 0 0 1 336 -99 2
Refer: 74 -1 N 1 0 0 1 336 -99 2
Refer: 163 1611 N 1 0 0 1 336 762 2
Refer: 166 1614 N 1 0 0 1 336 745 2
Refer: 169 1617 N 1 0 0 1 336 762 2
Refer: 171 1648 N 1 0 0 1 336 724 2
Refer: 69 -1 N 1 0 0 1 336 724 2
Refer: 71 -1 N 1 0 0 1 336 724 2
EndChar
StartChar: arLam.init
Encoding: 65561 -1 35
Width: 277
VWidth: 0
GlyphClass: 2
Flags: HW
LayerCount: 3
Fore
SplineSet
87 624 m 1
 192 624 l 1
 192 104 l 2
 192 44 143 0 86 0 c 2
 0 0 l 1
 0 105 l 1
 106 105 l 17
 107 105 87 84 87 84 c 1
 87 624 l 1
EndSplineSet
Layer: 2
Refer: 89 -1 N 1 0 0 1 140 724 2
Refer: 70 -1 N 1 0 0 1 140 724 2
Refer: 68 -1 N 1 0 0 1 140 724 2
Refer: 170 1618 N 1 0 0 1 140 760 2
Refer: 167 1615 N 1 0 0 1 140 758 2
Refer: 164 1612 N 1 0 0 1 140 757 2
Refer: 75 -1 N 1 0 0 1 110 -99 2
Refer: 73 -1 N 1 0 0 1 110 -99 2
Refer: 172 1622 N 1 0 0 1 110 -99 2
Refer: 165 1613 N 1 0 0 1 110 -129 2
Refer: 168 1616 N 1 0 0 1 110 -120 2
Refer: 72 -1 N 1 0 0 1 110 -99 2
Refer: 74 -1 N 1 0 0 1 110 -99 2
Refer: 163 1611 N 1 0 0 1 140 762 2
Refer: 166 1614 N 1 0 0 1 140 745 2
Refer: 169 1617 N 1 0 0 1 140 762 2
Refer: 171 1648 N 1 0 0 1 140 724 2
Refer: 69 -1 N 1 0 0 1 140 724 2
Refer: 71 -1 N 1 0 0 1 140 724 2
EndChar
StartChar: arLam.isol
Encoding: 65545 -1 9
Width: 683
VWidth: 0
GlyphClass: 2
Flags: HW
LayerCount: 3
Fore
SplineSet
473 624 m 1
 578 624 l 1
 578 -42 l 2
 578 -97 534 -148 472 -148 c 2
 212 -148 l 2
 154 -148 105 -104 105 -43 c 2
 105 146 l 1
 210 146 l 1
 210 -64 l 17
 190 -44 l 9
 494 -44 l 17
 473 -64 l 9
 473 624 l 1
EndSplineSet
Layer: 2
Refer: 89 -1 N 1 0 0 1 524 674 2
Refer: 70 -1 N 1 0 0 1 524 674 2
Refer: 68 -1 N 1 0 0 1 524 674 2
Refer: 170 1618 N 1 0 0 1 524 710 2
Refer: 167 1615 N 1 0 0 1 524 708 2
Refer: 164 1612 N 1 0 0 1 524 707 2
Refer: 75 -1 N 1 0 0 1 327 -258 2
Refer: 73 -1 N 1 0 0 1 327 -258 2
Refer: 172 1622 N 1 0 0 1 327 -258 2
Refer: 165 1613 N 1 0 0 1 327 -288 2
Refer: 168 1616 N 1 0 0 1 327 -279 2
Refer: 72 -1 N 1 0 0 1 327 -258 2
Refer: 74 -1 N 1 0 0 1 327 -258 2
Refer: 163 1611 N 1 0 0 1 524 712 2
Refer: 166 1614 N 1 0 0 1 524 695 2
Refer: 169 1617 N 1 0 0 1 524 712 2
Refer: 171 1648 N 1 0 0 1 524 674 2
Refer: 69 -1 N 1 0 0 1 524 674 2
Refer: 71 -1 N 1 0 0 1 524 674 2
EndChar
StartChar: arMeem.isol
Encoding: 65547 -1 11
Width: 784
VWidth: 0
GlyphClass: 2
Flags: HW
LayerCount: 3
Fore
SplineSet
207 105 m 1
 105 105 l 1
 192 0 l 1
 294 0 l 1
 207 105 l 1
EndSplineSet
Refer: 90 -1 N 1 0 0 1 207 0 2
Layer: 2
Refer: 89 -1 N 1 0 0 1 459 449 2
Refer: 70 -1 N 1 0 0 1 459 449 2
Refer: 68 -1 N 1 0 0 1 459 449 2
Refer: 170 1618 N 1 0 0 1 459 485 2
Refer: 167 1615 N 1 0 0 1 459 483 2
Refer: 164 1612 N 1 0 0 1 459 482 2
Refer: 75 -1 N 1 0 0 1 381 -109 2
Refer: 73 -1 N 1 0 0 1 381 -109 2
Refer: 172 1622 N 1 0 0 1 381 -109 2
Refer: 165 1613 N 1 0 0 1 381 -139 2
Refer: 168 1616 N 1 0 0 1 381 -130 2
Refer: 72 -1 N 1 0 0 1 381 -109 2
Refer: 74 -1 N 1 0 0 1 381 -109 2
Refer: 163 1611 N 1 0 0 1 459 487 2
Refer: 166 1614 N 1 0 0 1 459 470 2
Refer: 169 1617 N 1 0 0 1 459 487 2
Refer: 171 1648 N 1 0 0 1 459 449 2
Refer: 69 -1 N 1 0 0 1 459 449 2
Refer: 71 -1 N 1 0 0 1 459 449 2
EndChar
StartChar: arNoon.fina
Encoding: 65564 -1 38
Width: 620
VWidth: 0
GlyphClass: 2
Flags: HW
LayerCount: 3
Fore
SplineSet
640 105 m 1
 640 0 l 1
 499 0 l 1
 499 105 l 1
 640 105 l 1
EndSplineSet
Refer: 24 -1 N 1 0 0 1 0 0 2
Colour: ff00ff
EndChar
StartChar: arNoon.isol
Encoding: 65551 -1 24
Width: 569
VWidth: 0
GlyphClass: 2
Flags: HW
LayerCount: 3
Fore
SplineSet
414 188 m 1
 519 188 l 1
 519 -83 l 2
 519 -140 475 -188 415 -188 c 2
 277 -188 l 2
 149 -188 50 -118 50 -3 c 2
 50 187 l 1
 155 187 l 1
 155 -3 l 2
 155 -28 182 -82 277 -82 c 2
 434 -82 l 1
 414 -102 l 1
 414 188 l 1
EndSplineSet
Layer: 2
Refer: 75 -1 N 1 0 0 1 354 -297 2
Refer: 73 -1 N 1 0 0 1 354 -297 2
Refer: 172 1622 N 1 0 0 1 354 -297 2
Refer: 165 1613 N 1 0 0 1 354 -327 2
Refer: 71 -1 N 1 0 0 1 293 302 2
Refer: 69 -1 N 1 0 0 1 293 302 2
Refer: 171 1648 N 1 0 0 1 293 302 2
Refer: 169 1617 N 1 0 0 1 293 340 2
Refer: 166 1614 N 1 0 0 1 293 323 2
Refer: 163 1611 N 1 0 0 1 293 340 2
Refer: 164 1612 N 1 0 0 1 293 335 2
Refer: 167 1615 N 1 0 0 1 293 336 2
Refer: 170 1618 N 1 0 0 1 293 338 2
Refer: 68 -1 N 1 0 0 1 293 302 2
Refer: 70 -1 N 1 0 0 1 293 302 2
Refer: 89 -1 N 1 0 0 1 293 302 2
Refer: 168 1616 N 1 0 0 1 354 -318 2
Refer: 72 -1 N 1 0 0 1 354 -297 2
Refer: 74 -1 N 1 0 0 1 354 -297 2
EndChar
StartChar: arQaf.fina
Encoding: 65576 -1 53
Width: 805
VWidth: 0
GlyphClass: 2
Flags: HW
LayerCount: 3
Fore
SplineSet
825 105 m 1
 825 0 l 1
 626 0 l 2
 542 0 438 -14 375 90 c 0
 317 186 367 297 436 342 c 0
 513 391 643 386 704 290 c 0
 721 262 730 228 730 191 c 2
 730 -93 l 2
 730 -148 686 -200 623 -200 c 2
 201 -200 l 2
 120 -200 50 -142 50 -53 c 2
 50 189 l 1
 154 189 l 1
 154 -53 l 2
 154 -80 168 -94 201 -94 c 2
 645 -94 l 17
 626 -114 l 1
 626 191 l 2
 626 221 610 243 587 256 c 0
 559 272 521 272 492 254 c 0
 463 235 443 180 465 144 c 0
 492 99 521 105 626 105 c 2
 825 105 l 1
EndSplineSet
Layer: 2
Refer: 89 -1 N 1 0 0 1 534 479 2
Refer: 70 -1 N 1 0 0 1 534 479 2
Refer: 68 -1 N 1 0 0 1 534 479 2
Refer: 170 1618 N 1 0 0 1 534 515 2
Refer: 167 1615 N 1 0 0 1 534 513 2
Refer: 164 1612 N 1 0 0 1 534 512 2
Refer: 75 -1 N 1 0 0 1 414 -299 2
Refer: 73 -1 N 1 0 0 1 414 -299 2
Refer: 172 1622 N 1 0 0 1 414 -299 2
Refer: 165 1613 N 1 0 0 1 414 -329 2
Refer: 168 1616 N 1 0 0 1 414 -320 2
Refer: 72 -1 N 1 0 0 1 414 -299 2
Refer: 74 -1 N 1 0 0 1 414 -299 2
Refer: 163 1611 N 1 0 0 1 534 517 2
Refer: 166 1614 N 1 0 0 1 534 500 2
Refer: 169 1617 N 1 0 0 1 534 517 2
Refer: 171 1648 N 1 0 0 1 534 479 2
Refer: 69 -1 N 1 0 0 1 534 479 2
Refer: 71 -1 N 1 0 0 1 534 479 2
EndChar
StartChar: arQaf.isol
Encoding: 65575 -1 52
Width: 781
VWidth: 0
GlyphClass: 2
Flags: HW
LayerCount: 3
Fore
SplineSet
679 20 m 1
 571 16 439 -14 376 90 c 0
 318 186 367 297 436 342 c 0
 513 391 643 386 704 290 c 0
 721 262 731 228 731 191 c 2
 731 -93 l 2
 731 -148 686 -200 623 -200 c 2
 201 -200 l 2
 120 -200 50 -142 50 -53 c 2
 50 189 l 1
 155 189 l 1
 155 -53 l 2
 155 -80 168 -94 201 -94 c 2
 645 -94 l 17
 626 -114 l 1
 626 191 l 2
 626 228 600 256 567 265 c 0
 544 271 517 269 493 254 c 0
 464 235 443 180 465 144 c 0
 492 99 514 88 679 96 c 1
 679 20 l 1
EndSplineSet
Layer: 2
Refer: 89 -1 N 1 0 0 1 534 479 2
Refer: 70 -1 N 1 0 0 1 534 479 2
Refer: 68 -1 N 1 0 0 1 534 479 2
Refer: 113 1618 N 1 0 0 1 534 515 2
Refer: 110 1615 N 1 0 0 1 534 513 2
Refer: 107 1612 N 1 0 0 1 534 512 2
Refer: 75 -1 N 1 0 0 1 414 -299 2
Refer: 73 -1 N 1 0 0 1 414 -299 2
Refer: 115 1622 N 1 0 0 1 414 -299 2
Refer: 108 1613 N 1 0 0 1 414 -329 2
Refer: 111 1616 N 1 0 0 1 414 -320 2
Refer: 72 -1 N 1 0 0 1 414 -299 2
Refer: 74 -1 N 1 0 0 1 414 -299 2
Refer: 106 1611 N 1 0 0 1 534 517 2
Refer: 109 1614 N 1 0 0 1 534 500 2
Refer: 112 1617 N 1 0 0 1 534 517 2
Refer: 114 1648 N 1 0 0 1 534 479 2
Refer: 69 -1 N 1 0 0 1 534 479 2
Refer: 71 -1 N 1 0 0 1 534 479 2
EndChar
StartChar: arReh.isol
Encoding: 65539 -1 3
Width: 344
VWidth: 0
GlyphClass: 2
Flags: HW
LayerCount: 3
Fore
SplineSet
188 187 m 1
 294 187 l 1
 294 -1 l 2
 294 -108 214 -200 102 -200 c 2
 0 -200 l 1
 0 -96 l 1
 102 -96 l 2
 152 -96 188 -58 188 -1 c 2
 188 187 l 1
EndSplineSet
Layer: 2
Refer: 88 -1 N 1 0 0 1 236 351 2
Refer: 69 -1 N 1 0 0 1 236 351 2
Refer: 67 -1 N 1 0 0 1 236 351 2
Refer: 112 1618 N 1 0 0 1 236 387 2
Refer: 109 1615 N 1 0 0 1 236 385 2
Refer: 106 1612 N 1 0 0 1 236 384 2
Refer: 74 -1 N 1 0 0 1 138 -330 2
Refer: 72 -1 N 1 0 0 1 138 -330 2
Refer: 114 1622 N 1 0 0 1 138 -330 2
Refer: 107 1613 N 1 0 0 1 138 -360 2
Refer: 110 1616 N 1 0 0 1 138 -351 2
Refer: 71 -1 N 1 0 0 1 138 -330 2
Refer: 73 -1 N 1 0 0 1 138 -330 2
Refer: 105 1611 N 1 0 0 1 236 389 2
Refer: 108 1614 N 1 0 0 1 236 372 2
Refer: 111 1617 N 1 0 0 1 236 389 2
Refer: 113 1648 N 1 0 0 1 236 351 2
Refer: 68 -1 N 1 0 0 1 236 351 2
Refer: 70 -1 N 1 0 0 1 236 351 2
EndChar
StartChar: arSad.above
Encoding: 65608 -1 88
Width: 0
VWidth: 34
GlyphClass: 4
Flags: HW
LayerCount: 3
Fore
SplineSet
-100 47 m 1
 -54 111 8 216 94 184 c 0
 132 168 148 132 149 86 c 0
 150 53 l 2
 151 23 126 0 97 0 c 2
 -104 -0 l 1
 -104 52 l 1
 108 52 l 1
 96 42 l 1
 96 85 l 2
 96 121 86 129 74 135 c 0
 48 144 12 118 -52 22 c 1
 -100 47 l 1
-81 -0 m 1
 -149 -0 l 1
 -149 52 l 1
 -81 52 l 1
 -81 -0 l 1
EndSplineSet
Layer: 2
SplineSet
-100 47 m 1
 -54 111 8 216 94 184 c 0
 132 168 148 132 149 86 c 0
 150 53 l 2
 151 23 126 0 97 0 c 2
 -104 -0 l 1
 -104 52 l 1
 108 52 l 1
 96 42 l 1
 96 85 l 2
 96 121 86 129 74 135 c 0
 48 144 12 118 -52 22 c 1
 -100 47 l 1
-81 -0 m 1
 -149 -0 l 1
 -149 52 l 1
 -81 52 l 1
 -81 -0 l 1
EndSplineSet
Refer: 114 1648 N 1 0 0 1 0 240 2
Refer: 112 1617 N 1 0 0 1 0 278 2
Refer: 109 1614 N 1 0 0 1 0 261 2
Refer: 106 1611 N 1 0 0 1 0 278 2
Refer: 107 1612 N 1 0 0 1 0 273 2
Refer: 110 1615 N 1 0 0 1 0 274 2
Refer: 113 1618 N 1 0 0 1 0 276 2
EndChar
StartChar: arSad.head
Encoding: 65607 -1 87
Width: 0
VWidth: 0
GlyphClass: 2
Flags: HW
AnchorPoint: "arMarkBelow" 0 -200 basechar 0
AnchorPoint: "arDotBelow" 0 -200 basechar 0
AnchorPoint: "arMarkAbove" 0 507 basechar 0
AnchorPoint: "arDotAbove" 0 507 basechar 0
LayerCount: 3
Fore
SplineSet
-245 94 m 1
 -152 223 -30 432 142 368 c 0
 218 336 250 263 252 172 c 0
 254 106 l 2
 256 46 206 0 148 -0 c 2
 -254 -0 l 1
 -254 105 l 1
 169 105 l 1
 147 84 l 1
 147 170 l 2
 147 242 128 259 103 270 c 0
 52 288 -22 237 -149 44 c 1
 -245 94 l 1
EndSplineSet
EndChar
StartChar: arSad.init
Encoding: 65571 -1 44
Width: 697
VWidth: 0
GlyphClass: 2
Flags: HW
LayerCount: 3
Fore
SplineSet
0 0 m 25
 0 105 l 25
 147 105 l 25
 147 0 l 25
 0 0 l 25
86 277 m 1
 190 277 l 1
 190 98 l 1
 86 98 l 1
 86 277 l 1
EndSplineSet
Refer: 86 -1 N 1 0 0 1 393 0 2
Layer: 2
Refer: 74 -1 N 1 0 0 1 365 -149 2
Refer: 72 -1 N 1 0 0 1 365 -149 2
Refer: 114 1622 N 1 0 0 1 365 -149 2
Refer: 107 1613 N 1 0 0 1 365 -179 2
Refer: 70 -1 N 1 0 0 1 277 427 2
Refer: 68 -1 N 1 0 0 1 277 427 2
Refer: 113 1648 N 1 0 0 1 277 427 2
Refer: 111 1617 N 1 0 0 1 277 465 2
Refer: 108 1614 N 1 0 0 1 277 448 2
Refer: 105 1611 N 1 0 0 1 277 465 2
Refer: 106 1612 N 1 0 0 1 277 460 2
Refer: 109 1615 N 1 0 0 1 277 461 2
Refer: 112 1618 N 1 0 0 1 277 463 2
Refer: 67 -1 N 1 0 0 1 277 427 2
Refer: 69 -1 N 1 0 0 1 277 427 2
Refer: 88 -1 N 1 0 0 1 277 427 2
Refer: 110 1616 N 1 0 0 1 365 -170 2
Refer: 71 -1 N 1 0 0 1 365 -149 2
Refer: 73 -1 N 1 0 0 1 365 -149 2
EndChar
StartChar: arSad.isol
Encoding: 65542 -1 6
Width: 1139
VWidth: 0
GlyphClass: 2
Flags: HW
LayerCount: 3
Fore
SplineSet
474 277 m 1
 579 277 l 1
 579 -97 l 2
 579 -156 532 -202 474 -202 c 2
 207 -202 l 2
 145 -202 105 -146 105 -93 c 2
 105 185 l 1
 210 185 l 1
 210 -116 l 17
 190 -97 l 1
 494 -97 l 1
 474 -116 l 9
 474 -116 l 1
 474 277 l 1
EndSplineSet
Refer: 87 -1 N 1 0 0 1 781 0 2
Layer: 2
Refer: 89 -1 N 1 0 0 1 663 447 2
Refer: 70 -1 N 1 0 0 1 663 447 2
Refer: 68 -1 N 1 0 0 1 663 447 2
Refer: 170 1618 N 1 0 0 1 663 483 2
Refer: 167 1615 N 1 0 0 1 663 481 2
Refer: 164 1612 N 1 0 0 1 663 480 2
Refer: 75 -1 N 1 0 0 1 329 -311 2
Refer: 73 -1 N 1 0 0 1 329 -311 2
Refer: 172 1622 N 1 0 0 1 329 -311 2
Refer: 165 1613 N 1 0 0 1 329 -341 2
Refer: 168 1616 N 1 0 0 1 329 -332 2
Refer: 72 -1 N 1 0 0 1 329 -311 2
Refer: 74 -1 N 1 0 0 1 329 -311 2
Refer: 163 1611 N 1 0 0 1 663 485 2
Refer: 166 1614 N 1 0 0 1 663 468 2
Refer: 169 1617 N 1 0 0 1 663 485 2
Refer: 171 1648 N 1 0 0 1 663 447 2
Refer: 69 -1 N 1 0 0 1 663 447 2
Refer: 71 -1 N 1 0 0 1 663 447 2
EndChar
StartChar: arSeen.init
Encoding: 65562 -1 36
Width: 754
VWidth: 0
GlyphClass: 2
Flags: HW
LayerCount: 3
Fore
SplineSet
180 376 m 1
 285 376 l 1
 285 104 l 2
 285 44 236 0 179 0 c 2
 0 0 l 1
 0 105 l 1
 199 105 l 17
 200 105 180 84 180 84 c 1
 180 376 l 1
362 376 m 1
 467 376 l 1
 467 104 l 2
 467 44 418 0 361 0 c 2
 279 0 l 1
 279 105 l 1
 381 105 l 17
 382 105 362 84 362 84 c 1
 362 376 l 1
544 376 m 1
 649 376 l 1
 649 104 l 2
 649 44 600 0 543 0 c 2
 461 0 l 1
 461 105 l 1
 563 105 l 17
 564 105 544 84 544 84 c 1
 544 376 l 1
EndSplineSet
Layer: 2
Refer: 89 -1 N 1 0 0 1 405 513 2
Refer: 70 -1 N 1 0 0 1 405 513 2
Refer: 68 -1 N 1 0 0 1 405 513 2
Refer: 170 1618 N 1 0 0 1 405 549 2
Refer: 167 1615 N 1 0 0 1 405 547 2
Refer: 164 1612 N 1 0 0 1 405 546 2
Refer: 75 -1 N 1 0 0 1 405 -149 2
Refer: 73 -1 N 1 0 0 1 405 -149 2
Refer: 172 1622 N 1 0 0 1 405 -149 2
Refer: 165 1613 N 1 0 0 1 405 -179 2
Refer: 168 1616 N 1 0 0 1 405 -170 2
Refer: 72 -1 N 1 0 0 1 405 -149 2
Refer: 74 -1 N 1 0 0 1 405 -149 2
Refer: 163 1611 N 1 0 0 1 405 551 2
Refer: 166 1614 N 1 0 0 1 405 534 2
Refer: 169 1617 N 1 0 0 1 405 551 2
Refer: 171 1648 N 1 0 0 1 405 513 2
Refer: 69 -1 N 1 0 0 1 405 513 2
Refer: 71 -1 N 1 0 0 1 405 513 2
EndChar
StartChar: arSeen.isol
Encoding: 65541 -1 5
Width: 942
VWidth: 0
GlyphClass: 2
Flags: HW
LayerCount: 3
Fore
SplineSet
603 376 m 1
 708 376 l 1
 708 104 l 2
 708 44 659 0 602 0 c 2
 520 0 l 1
 520 105 l 1
 622 105 l 17
 623 105 603 84 603 84 c 1
 603 376 l 1
787 376 m 1
 892 376 l 1
 892 104 l 2
 892 44 843 0 786 0 c 2
 704 0 l 1
 704 105 l 1
 806 105 l 17
 807 105 787 84 787 84 c 1
 787 376 l 1
419 378 m 1
 524 378 l 1
 524 -97 l 2
 524 -156 477 -202 419 -202 c 2
 152 -202 l 2
 90 -202 50 -146 50 -93 c 2
 50 185 l 1
 155 185 l 1
 155 -116 l 17
 135 -97 l 1
 439 -97 l 1
 419 -116 l 9
 419 -116 l 1
 419 378 l 1
EndSplineSet
Layer: 2
Refer: 89 -1 N 1 0 0 1 643 512 2
Refer: 70 -1 N 1 0 0 1 643 512 2
Refer: 68 -1 N 1 0 0 1 643 512 2
Refer: 170 1618 N 1 0 0 1 643 548 2
Refer: 167 1615 N 1 0 0 1 643 546 2
Refer: 164 1612 N 1 0 0 1 643 545 2
Refer: 75 -1 N 1 0 0 1 274 -311 2
Refer: 73 -1 N 1 0 0 1 274 -311 2
Refer: 172 1622 N 1 0 0 1 274 -311 2
Refer: 165 1613 N 1 0 0 1 274 -341 2
Refer: 168 1616 N 1 0 0 1 274 -332 2
Refer: 72 -1 N 1 0 0 1 274 -311 2
Refer: 74 -1 N 1 0 0 1 274 -311 2
Refer: 163 1611 N 1 0 0 1 643 550 2
Refer: 166 1614 N 1 0 0 1 643 533 2
Refer: 169 1617 N 1 0 0 1 643 550 2
Refer: 171 1648 N 1 0 0 1 643 512 2
Refer: 69 -1 N 1 0 0 1 643 512 2
Refer: 71 -1 N 1 0 0 1 643 512 2
EndChar
StartChar: arTah.above
Encoding: 65609 -1 89
Width: 0
VWidth: 34
GlyphClass: 4
Flags: HW
AnchorPoint: "arMarkAboveDot" 0 370 basemark 0
LayerCount: 3
Fore
SplineSet
-142 0 m 25
 -142 52 l 25
 -108 52 l 25
 -108 0 l 25
 -142 0 l 25
-103 312 m 1
 -50 312 l 1
 -50 44 l 1
 -103 44 l 1
 -103 312 l 1
-107 47 m 1
 -61 111 0 216 86 184 c 0
 124 168 141 132 142 86 c 0
 142 53 l 2
 143 23 119 0 90 0 c 2
 -112 0 l 1
 -112 52 l 1
 100 52 l 1
 89 42 l 1
 89 85 l 2
 89 121 79 129 67 135 c 0
 41 144 5 118 -59 22 c 1
 -107 47 l 1
EndSplineSet
Layer: 2
SplineSet
-142 0 m 25
 -142 52 l 25
 -108 52 l 25
 -108 0 l 25
 -142 0 l 25
-103 312 m 1
 -50 312 l 1
 -50 44 l 1
 -103 44 l 1
 -103 312 l 1
-107 47 m 1
 -61 111 0 216 86 184 c 0
 124 168 141 132 142 86 c 0
 142 53 l 2
 143 23 119 0 90 0 c 2
 -112 0 l 1
 -112 52 l 1
 100 52 l 1
 89 42 l 1
 89 85 l 2
 89 121 79 129 67 135 c 0
 41 144 5 118 -59 22 c 1
 -107 47 l 1
EndSplineSet
EndChar
StartChar: arTah.isol
Encoding: 65543 -1 7
Width: 779
VWidth: 0
GlyphClass: 2
Flags: HW
LayerCount: 3
Fore
SplineSet
105 0 m 25
 105 105 l 25
 175 105 l 25
 175 0 l 25
 105 0 l 25
184 624 m 1
 290 624 l 1
 290 88 l 1
 184 88 l 1
 184 624 l 1
EndSplineSet
Refer: 87 -1 N 1 0 0 1 421 0 2
Layer: 2
Refer: 89 -1 N 1 0 0 1 446 485 2
Refer: 70 -1 N 1 0 0 1 446 485 2
Refer: 68 -1 N 1 0 0 1 446 485 2
Refer: 170 1618 N 1 0 0 1 446 521 2
Refer: 167 1615 N 1 0 0 1 446 519 2
Refer: 164 1612 N 1 0 0 1 446 518 2
Refer: 75 -1 N 1 0 0 1 409 -110 2
Refer: 73 -1 N 1 0 0 1 409 -110 2
Refer: 172 1622 N 1 0 0 1 409 -110 2
Refer: 165 1613 N 1 0 0 1 409 -140 2
Refer: 168 1616 N 1 0 0 1 409 -131 2
Refer: 72 -1 N 1 0 0 1 409 -110 2
Refer: 74 -1 N 1 0 0 1 409 -110 2
Refer: 163 1611 N 1 0 0 1 446 523 2
Refer: 166 1614 N 1 0 0 1 446 506 2
Refer: 169 1617 N 1 0 0 1 446 523 2
Refer: 171 1648 N 1 0 0 1 446 485 2
Refer: 69 -1 N 1 0 0 1 446 485 2
Refer: 71 -1 N 1 0 0 1 446 485 2
EndChar
StartChar: arWaw.fina
Encoding: 65559 -1 33
Width: 495
VWidth: 0
GlyphClass: 2
Flags: HW
LayerCount: 3
Fore
SplineSet
515 105 m 1
 515 0 l 1
 370 0 l 1
 370 105 l 1
 515 105 l 1
EndSplineSet
Refer: 13 -1 N 1 0 0 1 0 0 2
Colour: ff00ff
EndChar
StartChar: arWaw.isol
Encoding: 65549 -1 13
Width: 468
VWidth: 0
GlyphClass: 2
Flags: HW
LayerCount: 3
Fore
SplineSet
362 0 m 1
 206 0 l 2
 116 0 45 73 50 159 c 0
 62 296 176 375 274 376 c 0
 347 377 417 326 418 233 c 2
 418 -1 l 2
 418 -99 345 -200 228 -200 c 2
 35 -200 l 1
 35 -94 l 1
 228 -94 l 2
 277 -94 314 -50 314 0 c 2
 314 213 l 2
 314 245 302 271 275 271 c 0
 229 271 162 228 154 151 c 0
 153 131 174 105 206 105 c 2
 362 105 l 1
 362 0 l 1
EndSplineSet
Layer: 2
Refer: 88 -1 N 1 0 0 1 263 484 2
Refer: 69 -1 N 1 0 0 1 263 484 2
Refer: 67 -1 N 1 0 0 1 263 484 2
Refer: 112 1618 N 1 0 0 1 263 520 2
Refer: 109 1615 N 1 0 0 1 263 518 2
Refer: 106 1612 N 1 0 0 1 263 517 2
Refer: 92 1620 N 1 0 0 1 263 484 2
Refer: 87 -1 N 1 0 0 1 263 484 2
Refer: 74 -1 N 1 0 0 1 199 -309 2
Refer: 72 -1 N 1 0 0 1 199 -309 2
Refer: 114 1622 N 1 0 0 1 199 -309 2
Refer: 107 1613 N 1 0 0 1 199 -339 2
Refer: 110 1616 N 1 0 0 1 199 -330 2
Refer: 71 -1 N 1 0 0 1 199 -309 2
Refer: 73 -1 N 1 0 0 1 199 -309 2
Refer: 75 -1 N 1 0 0 1 263 484 2
Refer: 91 1619 N 1 0 0 1 263 484 2
Refer: 105 1611 N 1 0 0 1 263 522 2
Refer: 108 1614 N 1 0 0 1 263 505 2
Refer: 111 1617 N 1 0 0 1 263 522 2
Refer: 113 1648 N 1 0 0 1 263 484 2
Refer: 68 -1 N 1 0 0 1 263 484 2
Refer: 70 -1 N 1 0 0 1 263 484 2
EndChar
StartChar: arYeh.fina.alt1
Encoding: 65565 -1 39
Width: 674
VWidth: 0
GlyphClass: 2
Flags: HW
LayerCount: 3
Fore
SplineSet
469 58 m 1
 574 58 l 1
 574 -83 l 2
 574 -140 530 -188 470 -188 c 2
 332 -188 l 2
 204 -188 105 -118 105 -3 c 2
 105 187 l 1
 210 187 l 1
 210 -3 l 2
 210 -28 237 -82 332 -82 c 2
 489 -82 l 1
 469 -102 l 1
 469 58 l 1
694 105 m 1
 694 0 l 1
 422 0 l 1
 422 105 l 1
 694 105 l 1
EndSplineSet
Layer: 2
Refer: 75 -1 N 1 0 0 1 379 -276 2
Refer: 73 -1 N 1 0 0 1 379 -276 2
Refer: 115 1622 N 1 0 0 1 379 -276 2
Refer: 108 1613 N 1 0 0 1 379 -306 2
Refer: 92 1619 N 1 0 0 1 307 250 2
Refer: 76 -1 N 1 0 0 1 307 250 2
Refer: 71 -1 N 1 0 0 1 307 250 2
Refer: 69 -1 N 1 0 0 1 307 250 2
Refer: 114 1648 N 1 0 0 1 307 250 2
Refer: 112 1617 N 1 0 0 1 307 288 2
Refer: 109 1614 N 1 0 0 1 307 271 2
Refer: 106 1611 N 1 0 0 1 307 288 2
Refer: 107 1612 N 1 0 0 1 307 283 2
Refer: 110 1615 N 1 0 0 1 307 284 2
Refer: 113 1618 N 1 0 0 1 307 286 2
Refer: 68 -1 N 1 0 0 1 307 250 2
Refer: 70 -1 N 1 0 0 1 307 250 2
Refer: 89 -1 N 1 0 0 1 307 250 2
Refer: 88 -1 N 1 0 0 1 307 250 2
Refer: 93 1620 N 1 0 0 1 307 250 2
Refer: 111 1616 N 1 0 0 1 379 -297 2
Refer: 72 -1 N 1 0 0 1 379 -276 2
Refer: 74 -1 N 1 0 0 1 379 -276 2
EndChar
StartChar: arYeh.fina.alt2
Encoding: 65566 -1 40
Width: 869
VWidth: 0
GlyphClass: 2
Flags: HW
LayerCount: 3
Fore
SplineSet
889 105 m 1
 889 0 l 1
 758 0 l 2
 705 0 662 44 659 97 c 2
 655 179 l 2
 654 200 643 216 602 193 c 0
 565 173 510 137 484 103 c 1
 487 140 l 1
 616 -8 l 2
 675 -76 613 -162 538 -162 c 2
 273 -162 l 2
 168 -163 105 -76 105 14 c 2
 105 217 l 1
 210 217 l 1
 210 14 l 2
 210 -31 236 -58 272 -58 c 2
 539 -58 l 1
 532 -72 l 1
 426 50 l 2
 387 94 384 156 428 196 c 0
 465 232 510 262 551 285 c 0
 621 324 706 311 743 244 c 0
 765 204 762 143 765 86 c 1
 744 105 l 1
 889 105 l 1
EndSplineSet
Layer: 2
Refer: 75 -1 N 1 0 0 1 379 -246 2
Refer: 73 -1 N 1 0 0 1 379 -246 2
Refer: 172 1622 N 1 0 0 1 379 -246 2
Refer: 165 1613 N 1 0 0 1 379 -276 2
Refer: 127 1619 N 1 0 0 1 307 280 2
Refer: 76 -1 N 1 0 0 1 307 280 2
Refer: 71 -1 N 1 0 0 1 307 280 2
Refer: 69 -1 N 1 0 0 1 307 280 2
Refer: 171 1648 N 1 0 0 1 307 280 2
Refer: 169 1617 N 1 0 0 1 307 318 2
Refer: 166 1614 N 1 0 0 1 307 301 2
Refer: 163 1611 N 1 0 0 1 307 318 2
Refer: 164 1612 N 1 0 0 1 307 313 2
Refer: 167 1615 N 1 0 0 1 307 314 2
Refer: 170 1618 N 1 0 0 1 307 316 2
Refer: 68 -1 N 1 0 0 1 307 280 2
Refer: 70 -1 N 1 0 0 1 307 280 2
Refer: 89 -1 N 1 0 0 1 307 280 2
Refer: 88 -1 N 1 0 0 1 307 280 2
Refer: 128 1620 N 1 0 0 1 307 280 2
Refer: 168 1616 N 1 0 0 1 379 -267 2
Refer: 72 -1 N 1 0 0 1 379 -246 2
Refer: 74 -1 N 1 0 0 1 379 -246 2
EndChar
StartChar: arYeh.fina2
Encoding: 65573 -1 47
Width: 763
VWidth: 0
GlyphClass: 2
Flags: HW
LayerCount: 3
Fore
SplineSet
763 -170 m 1
 763 -276 l 1
 325 -276 l 2
 210 -276 131 -223 110 -145 c 0
 87 -59 141 32 235 57 c 0
 328 81 292 85 325 142 c 0
 354 192 403 232 474 233 c 0
 532 234 590 202 620 145 c 0
 637 111 649 105 689 105 c 10
 783 105 l 1
 783 0 l 1
 689 0 l 18
 621 0 562 31 527 97 c 0
 515 120 494 130 472 128 c 0
 445 126 430 111 416 88 c 0
 407 73 389 -11 262 -45 c 0
 221 -56 205 -92 212 -118 c 0
 217 -137 238 -170 325 -170 c 2
 763 -170 l 1
EndSplineSet
Layer: 2
Refer: 75 -1 N 1 0 0 1 544 -370 2
Refer: 73 -1 N 1 0 0 1 544 -370 2
Refer: 172 1622 N 1 0 0 1 544 -370 2
Refer: 165 1613 N 1 0 0 1 544 -400 2
Refer: 127 1619 N 1 0 0 1 484 335 2
Refer: 76 -1 N 1 0 0 1 484 335 2
Refer: 71 -1 N 1 0 0 1 484 335 2
Refer: 69 -1 N 1 0 0 1 484 335 2
Refer: 171 1648 N 1 0 0 1 484 335 2
Refer: 169 1617 N 1 0 0 1 484 373 2
Refer: 166 1614 N 1 0 0 1 484 356 2
Refer: 163 1611 N 1 0 0 1 484 373 2
Refer: 164 1612 N 1 0 0 1 484 368 2
Refer: 167 1615 N 1 0 0 1 484 369 2
Refer: 170 1618 N 1 0 0 1 484 371 2
Refer: 68 -1 N 1 0 0 1 484 335 2
Refer: 70 -1 N 1 0 0 1 484 335 2
Refer: 89 -1 N 1 0 0 1 484 335 2
Refer: 88 -1 N 1 0 0 1 484 335 2
Refer: 128 1620 N 1 0 0 1 484 335 2
Refer: 168 1616 N 1 0 0 1 544 -391 2
Refer: 72 -1 N 1 0 0 1 544 -370 2
Refer: 74 -1 N 1 0 0 1 544 -370 2
EndChar
StartChar: arYeh.isol
Encoding: 65550 -1 14
Width: 631
VWidth: 0
GlyphClass: 2
Flags: HW
LayerCount: 3
Fore
SplineSet
581 144 m 1
 581 40 l 1
 432 40 l 1
 442 52 l 1
 557 -87 l 2
 613 -154 547 -234 473 -234 c 2
 243 -234 l 2
 165 -234 50 -188 50 -57 c 2
 50 139 l 1
 155 139 l 1
 155 -57 l 2
 155 -108 196 -130 253 -130 c 2
 477 -130 l 1
 468 -143 l 1
 365 -19 l 2
 306 52 351 144 443 144 c 2
 581 144 l 1
EndSplineSet
Layer: 2
Refer: 75 -1 N 1 0 0 1 324 -324 2
Refer: 73 -1 N 1 0 0 1 324 -324 2
Refer: 172 1622 N 1 0 0 1 324 -324 2
Refer: 165 1613 N 1 0 0 1 324 -354 2
Refer: 71 -1 N 1 0 0 1 252 202 2
Refer: 69 -1 N 1 0 0 1 252 202 2
Refer: 128 1620 N 1 0 0 1 252 202 2
Refer: 88 -1 N 1 0 0 1 252 202 2
Refer: 171 1648 N 1 0 0 1 252 202 2
Refer: 169 1617 N 1 0 0 1 252 240 2
Refer: 166 1614 N 1 0 0 1 252 223 2
Refer: 163 1611 N 1 0 0 1 252 240 2
Refer: 164 1612 N 1 0 0 1 252 235 2
Refer: 167 1615 N 1 0 0 1 252 236 2
Refer: 170 1618 N 1 0 0 1 252 238 2
Refer: 76 -1 N 1 0 0 1 252 202 2
Refer: 127 1619 N 1 0 0 1 252 202 2
Refer: 68 -1 N 1 0 0 1 252 202 2
Refer: 70 -1 N 1 0 0 1 252 202 2
Refer: 89 -1 N 1 0 0 1 252 202 2
Refer: 168 1616 N 1 0 0 1 324 -345 2
Refer: 72 -1 N 1 0 0 1 324 -324 2
Refer: 74 -1 N 1 0 0 1 324 -324 2
EndChar
StartChar: arYeh.isol2
Encoding: 65553 -1 26
Width: 946
VWidth: 0
GlyphClass: 2
Flags: HW
LayerCount: 3
Fore
SplineSet
581 264 m 1
 525 176 l 1
 475 208 405 230 358 163 c 0
 353 156 334 65 207 32 c 0
 166 21 150 -15 157 -41 c 0
 162 -60 183 -92 270 -92 c 0
 896 -92 l 1
 896 -198 l 1
 270 -198 l 0
 155 -198 76 -145 55 -67 c 0
 32 19 87 110 180 134 c 0
 273 159 230 162 273 223 c 0
 372 364 523 300 581 264 c 1
EndSplineSet
Layer: 2
Refer: 75 -1 N 1 0 0 1 489 -297 2
Refer: 73 -1 N 1 0 0 1 489 -297 2
Refer: 172 1622 N 1 0 0 1 489 -297 2
Refer: 165 1613 N 1 0 0 1 489 -327 2
Refer: 71 -1 N 1 0 0 1 429 408 2
Refer: 69 -1 N 1 0 0 1 429 408 2
Refer: 128 1620 N 1 0 0 1 429 408 2
Refer: 88 -1 N 1 0 0 1 429 408 2
Refer: 171 1648 N 1 0 0 1 429 408 2
Refer: 169 1617 N 1 0 0 1 429 446 2
Refer: 166 1614 N 1 0 0 1 429 429 2
Refer: 163 1611 N 1 0 0 1 429 446 2
Refer: 164 1612 N 1 0 0 1 429 441 2
Refer: 167 1615 N 1 0 0 1 429 442 2
Refer: 170 1618 N 1 0 0 1 429 444 2
Refer: 76 -1 N 1 0 0 1 429 408 2
Refer: 127 1619 N 1 0 0 1 429 408 2
Refer: 68 -1 N 1 0 0 1 429 408 2
Refer: 70 -1 N 1 0 0 1 429 408 2
Refer: 89 -1 N 1 0 0 1 429 408 2
Refer: 168 1616 N 1 0 0 1 489 -318 2
Refer: 72 -1 N 1 0 0 1 489 -297 2
Refer: 74 -1 N 1 0 0 1 489 -297 2
EndChar
StartChar: braceleft.ar
Encoding: 123 -1 48
Width: 493
VWidth: 0
GlyphClass: 2
Flags: HW
LayerCount: 3
Fore
SplineSet
437.444335938 -185.5 m 1
 437.444335938 -290.5 l 1
 346.4375 -290.5 243.944335938 -239.845703125 243.944335938 -115 c 0
 243.944335938 123 l 0
 243.944335938 157.08203125 232.266601562 171.3203125 202.856445312 180.962890625 c 0
 190.759765625 184.928710938 174.833007812 187.5 155.444335938 187.5 c 1
 155.444335938 188.5 154.444335938 292.5 155.444335938 292.5 c 1
 174.690429688 292.5 190.350585938 295.310546875 202.348632812 299.559570312 c 0
 231.880859375 310.018554688 243.944335938 326.8828125 243.944335938 358 c 0
 243.944335938 610 l 0
 243.944335938 722.568359375 348.854492188 771.849609375 438.825195312 769.481445312 c 1
 436.063476562 664.518554688 l 1
 374.034179688 666.150390625 348.944335938 639.431640625 348.944335938 610 c 0
 348.944335938 358 l 0
 348.944335938 313.572265625 333.24609375 271.575195312 302.65625 240.9375 c 1
 334.995117188 208.982421875 348.944335938 168.521484375 348.944335938 123 c 0
 348.944335938 -115 l 0
 348.944335938 -166.154296875 376.451171875 -185.5 437.444335938 -185.5 c 1
EndSplineSet
EndChar
